<svg width="640" height="467" viewBox="0 0 640 467" fill="none" xmlns="http://www.w3.org/2000/svg">
<g clip-path="url(#clip0_2408_74098)">
<rect width="640" height="466.472" rx="24" fill="#F8EDED"/>
<path d="M50.8566 466.391H77.0806L77.0806 355.512H50.8566L50.8566 466.391Z" fill="#E9C8CA"/>
<path d="M64.2293 378.637H72.2007V363.276H64.2293V378.637Z" fill="#F8EDED"/>
<path d="M67.989 378.636C68.0497 378.636 68.0932 375.163 68.0932 370.96C68.0932 366.757 68.0932 363.275 67.989 363.275C67.8848 363.275 67.8848 366.749 67.8848 370.96C67.8848 375.172 67.9108 378.636 67.989 378.636Z" fill="#DAA3A7"/>
<path d="M64.229 368.617C64.229 368.669 65.9657 368.721 68.2147 368.721C70.4637 368.721 72.2004 368.669 72.2004 368.617C70.875 368.505 69.5443 368.467 68.2147 368.504C66.8851 368.467 65.5544 368.505 64.229 368.617Z" fill="#DAA3A7"/>
<path d="M64.1858 374.105C65.5231 374.211 66.8652 374.246 68.2062 374.209C69.5444 374.245 70.8835 374.211 72.218 374.105C70.8835 373.999 69.5444 373.964 68.2062 374C66.8652 373.964 65.5231 373.999 64.1858 374.105Z" fill="#DAA3A7"/>
<path d="M64.2293 398.695H72.2007V383.334H64.2293V398.695Z" fill="#F8EDED"/>
<path d="M67.989 398.695C68.0497 398.695 68.0932 395.222 68.0932 391.019C68.0932 386.816 68.0932 383.334 67.989 383.334C67.8848 383.334 67.8848 386.807 67.8848 391.019C67.8848 395.23 67.9108 398.695 67.989 398.695Z" fill="#DAA3A7"/>
<path d="M64.229 388.673C65.5547 388.78 66.8852 388.814 68.2147 388.778C69.5442 388.814 70.8746 388.779 72.2004 388.673C70.875 388.562 69.5443 388.524 68.2147 388.56C66.8851 388.524 65.5544 388.561 64.229 388.673Z" fill="#DAA3A7"/>
<path d="M64.1858 394.161C65.5228 394.273 66.865 394.311 68.2062 394.274C69.5445 394.311 70.8838 394.273 72.218 394.161C70.8835 394.055 69.5444 394.021 68.2062 394.057C66.8652 394.02 65.5231 394.055 64.1858 394.161Z" fill="#DAA3A7"/>
<path d="M64.2293 418.754H72.2007V403.393H64.2293V418.754Z" fill="#F8EDED"/>
<path d="M67.989 418.754C68.0498 418.754 68.0932 415.28 68.0932 411.077C68.0932 406.875 68.0932 403.393 67.989 403.393C67.8848 403.393 67.9109 406.831 67.9109 411.086C67.9109 415.341 67.9109 418.754 67.989 418.754Z" fill="#DAA3A7"/>
<path d="M64.229 408.734C65.5547 408.84 66.8852 408.875 68.2147 408.838C69.5442 408.874 70.8746 408.839 72.2004 408.734C70.8746 408.628 69.5442 408.593 68.2147 408.629C66.8852 408.593 65.5547 408.627 64.229 408.734Z" fill="#DAA3A7"/>
<path d="M64.1858 414.221C65.5228 414.333 66.865 414.371 68.2062 414.334C69.5445 414.371 70.8838 414.333 72.218 414.221C72.218 414.169 70.4205 414.117 68.2062 414.117C65.9919 414.117 64.1858 414.169 64.1858 414.221Z" fill="#DAA3A7"/>
<path d="M64.2293 438.812H72.2007V423.452H64.2293V438.812Z" fill="#F8EDED"/>
<path d="M67.989 438.811C68.0498 438.811 68.0932 435.338 68.0932 431.135C68.0932 426.932 68.0932 423.459 67.989 423.459C67.8848 423.459 67.9109 426.889 67.9109 431.135C67.9109 435.381 67.9109 438.811 67.989 438.811Z" fill="#DAA3A7"/>
<path d="M64.229 428.79C65.5547 428.896 66.8852 428.931 68.2147 428.894C69.5442 428.931 70.8746 428.896 72.2004 428.79C70.8746 428.684 69.5442 428.65 68.2147 428.686C66.8852 428.649 65.5547 428.684 64.229 428.79Z" fill="#DAA3A7"/>
<path d="M64.1858 434.28C65.5228 434.392 66.865 434.43 68.2062 434.393C69.5445 434.429 70.8838 434.392 72.218 434.28C72.218 434.228 70.4205 434.176 68.2062 434.176C65.9919 434.176 64.1858 434.228 64.1858 434.28Z" fill="#DAA3A7"/>
<path d="M39.7161 466.391H58.8196L58.8196 355.512H39.7161L39.7161 466.391Z" fill="#DAA3A7"/>
<path d="M44.9085 378.637H52.8799V363.276H44.9085V378.637Z" fill="#F8EDED"/>
<path d="M48.677 378.636C48.7377 378.636 48.7812 375.163 48.7812 370.96C48.7812 366.757 48.7812 363.275 48.677 363.275C48.5728 363.275 48.5728 366.749 48.5728 370.96C48.5728 375.172 48.6162 378.636 48.677 378.636Z" fill="#DAA3A7"/>
<path d="M44.917 368.617C44.917 368.669 46.6537 368.721 48.9027 368.721C51.1517 368.721 52.8884 368.669 52.8884 368.617C51.5629 368.505 50.2323 368.467 48.9027 368.504C47.5731 368.467 46.2424 368.505 44.917 368.617Z" fill="#DAA3A7"/>
<path d="M44.8738 374.105C46.2111 374.211 47.5532 374.246 48.8942 374.209C50.2323 374.245 51.5715 374.211 52.9059 374.105C51.5715 373.999 50.2323 373.964 48.8942 374C47.5532 373.964 46.2111 373.999 44.8738 374.105Z" fill="#DAA3A7"/>
<path d="M44.9085 398.861H52.8799V383.5H44.9085V398.861Z" fill="#F8EDED"/>
<path d="M48.677 398.859C48.7377 398.859 48.7812 395.386 48.7812 391.183C48.7812 386.98 48.7812 383.498 48.677 383.498C48.5728 383.498 48.5728 386.971 48.5728 391.183C48.5728 395.394 48.6162 398.859 48.677 398.859Z" fill="#DAA3A7"/>
<path d="M44.917 388.839C44.917 388.891 46.6537 388.944 48.9027 388.944C51.1517 388.944 52.8884 388.891 52.8884 388.839C51.5629 388.728 50.2323 388.69 48.9027 388.726C47.5731 388.69 46.2424 388.727 44.917 388.839Z" fill="#DAA3A7"/>
<path d="M44.8738 394.327C46.2111 394.433 47.5532 394.468 48.8942 394.432C50.2323 394.468 51.5715 394.433 52.9059 394.327C51.5715 394.221 50.2323 394.187 48.8942 394.223C47.5532 394.186 46.2111 394.221 44.8738 394.327Z" fill="#DAA3A7"/>
<path d="M44.9085 419.084H52.8799V403.723H44.9085V419.084Z" fill="#F8EDED"/>
<path d="M48.677 419.084C48.7377 419.084 48.7812 415.61 48.7812 411.407C48.7812 407.205 48.7812 403.723 48.677 403.723C48.5728 403.723 48.5728 407.196 48.5728 411.407C48.5728 415.619 48.6162 419.084 48.677 419.084Z" fill="#DAA3A7"/>
<path d="M44.917 409.064C46.2427 409.17 47.5732 409.205 48.9027 409.168C50.2322 409.204 51.5626 409.17 52.8884 409.064C51.5626 408.958 50.2322 408.923 48.9027 408.959C47.5732 408.923 46.2427 408.958 44.917 409.064Z" fill="#DAA3A7"/>
<path d="M44.8738 414.56C46.2108 414.672 47.553 414.709 48.8942 414.673C50.2325 414.709 51.5718 414.671 52.9059 414.56C51.5715 414.454 50.2323 414.419 48.8942 414.456C47.5532 414.419 46.2111 414.454 44.8738 414.56Z" fill="#DAA3A7"/>
<path d="M44.9085 439.309H52.8799V423.948H44.9085V439.309Z" fill="#F8EDED"/>
<path d="M48.677 439.308C48.7377 439.308 48.7812 435.835 48.7812 431.632C48.7812 427.429 48.7812 423.947 48.677 423.947C48.5728 423.947 48.5728 427.421 48.5728 431.632C48.5728 435.844 48.6162 439.308 48.677 439.308Z" fill="#DAA3A7"/>
<path d="M44.917 429.321C46.2427 429.428 47.5732 429.462 48.9027 429.426C50.2322 429.462 51.5626 429.427 52.8884 429.321C51.5626 429.216 50.2322 429.181 48.9027 429.217C47.5732 429.181 46.2427 429.215 44.917 429.321Z" fill="#DAA3A7"/>
<path d="M44.8738 434.776C46.2108 434.888 47.553 434.926 48.8942 434.889C50.2325 434.926 51.5718 434.888 52.9059 434.776C52.9059 434.724 51.1085 434.672 48.8942 434.672C46.6799 434.672 44.8738 434.724 44.8738 434.776Z" fill="#DAA3A7"/>
<path d="M64.2293 458.871H72.2007V443.51H64.2293V458.871Z" fill="#F8EDED"/>
<path d="M67.989 458.846C68.0497 458.846 68.0932 455.373 68.0932 451.17C68.0932 446.968 68.0932 443.494 67.989 443.494C67.8848 443.494 67.8848 446.968 67.8848 451.17C67.8848 455.373 67.9108 458.846 67.989 458.846Z" fill="#DAA3A7"/>
<path d="M64.229 448.851C65.5547 448.957 66.8852 448.992 68.2147 448.955C69.5442 448.991 70.8746 448.957 72.2004 448.851C70.8746 448.745 69.5442 448.71 68.2147 448.747C66.8852 448.71 65.5547 448.745 64.229 448.851Z" fill="#DAA3A7"/>
<path d="M64.1858 454.347C64.1858 454.399 65.9833 454.451 68.2062 454.451C70.4292 454.451 72.218 454.399 72.218 454.347C70.8838 454.235 69.5445 454.198 68.2062 454.234C66.865 454.198 65.5228 454.235 64.1858 454.347Z" fill="#DAA3A7"/>
<path d="M44.9085 459.541H52.8799V444.18H44.9085V459.541Z" fill="#F8EDED"/>
<path d="M48.677 459.533C48.7377 459.533 48.7812 456.059 48.7812 451.857C48.7812 447.654 48.7812 444.172 48.677 444.172C48.5728 444.172 48.5728 447.645 48.5728 451.857C48.5728 456.068 48.6162 459.533 48.677 459.533Z" fill="#DAA3A7"/>
<path d="M44.917 449.511C46.2427 449.617 47.5732 449.652 48.9027 449.615C50.2322 449.652 51.5626 449.617 52.8884 449.511C51.5626 449.405 50.2322 449.37 48.9027 449.407C47.5732 449.37 46.2427 449.405 44.917 449.511Z" fill="#DAA3A7"/>
<path d="M44.8738 454.999C46.2108 455.111 47.553 455.148 48.8942 455.112C50.2325 455.148 51.5718 455.11 52.9059 454.999C52.9059 454.947 51.1085 454.895 48.8942 454.895C46.6799 454.895 44.8738 454.947 44.8738 454.999Z" fill="#DAA3A7"/>
<path d="M330.567 388.311H361.419V257.851H330.567V388.311Z" fill="#E9C8CA"/>
<path d="M346.284 285.064H355.662V266.994H346.284V285.064Z" fill="#F8EDED"/>
<path d="M350.712 285.064C350.782 285.064 350.834 281.018 350.834 276.034C350.834 271.049 350.782 266.994 350.712 266.994C350.643 266.994 350.582 271.041 350.582 276.034C350.582 281.027 350.643 285.064 350.712 285.064Z" fill="#DAA3A7"/>
<path d="M346.284 273.272C349.407 273.446 352.538 273.446 355.662 273.272C352.538 273.11 349.408 273.11 346.284 273.272Z" fill="#DAA3A7"/>
<path d="M346.232 279.731C349.382 279.905 352.539 279.905 355.688 279.731C352.538 279.569 349.382 279.569 346.232 279.731Z" fill="#DAA3A7"/>
<path d="M346.284 308.666H355.662V290.596H346.284V308.666Z" fill="#F8EDED"/>
<path d="M350.712 308.664C350.782 308.664 350.834 304.617 350.834 299.633C350.834 294.649 350.782 290.594 350.712 290.594C350.643 290.594 350.582 294.64 350.582 299.633C350.582 304.626 350.643 308.664 350.712 308.664Z" fill="#DAA3A7"/>
<path d="M346.284 296.874C349.407 297.047 352.538 297.047 355.662 296.874C352.538 296.711 349.408 296.711 346.284 296.874Z" fill="#DAA3A7"/>
<path d="M346.232 303.334C349.382 303.508 352.539 303.508 355.688 303.334C352.538 303.172 349.382 303.172 346.232 303.334Z" fill="#DAA3A7"/>
<path d="M346.284 332.268H355.662V314.197H346.284V332.268Z" fill="#F8EDED"/>
<path d="M350.712 332.267C350.782 332.267 350.834 328.221 350.834 323.237C350.834 318.252 350.782 314.197 350.712 314.197C350.643 314.197 350.582 318.244 350.582 323.237C350.582 328.23 350.643 332.267 350.712 332.267Z" fill="#DAA3A7"/>
<path d="M346.284 320.475C349.408 320.637 352.538 320.637 355.662 320.475C352.538 320.313 349.408 320.313 346.284 320.475Z" fill="#DAA3A7"/>
<path d="M346.232 326.936C349.382 327.11 352.539 327.11 355.688 326.936C352.538 326.774 349.382 326.774 346.232 326.936Z" fill="#DAA3A7"/>
<path d="M346.284 355.869H355.662V337.799H346.284V355.869Z" fill="#F8EDED"/>
<path d="M350.712 355.869C350.782 355.869 350.834 351.823 350.834 346.83C350.834 341.837 350.782 337.799 350.712 337.799C350.643 337.799 350.582 341.845 350.582 346.83C350.582 351.814 350.643 355.869 350.712 355.869Z" fill="#DAA3A7"/>
<path d="M346.284 344.077C349.408 344.239 352.538 344.239 355.662 344.077C352.538 343.915 349.408 343.915 346.284 344.077Z" fill="#DAA3A7"/>
<path d="M346.232 350.538C349.382 350.711 352.539 350.711 355.688 350.538C352.538 350.376 349.382 350.376 346.232 350.538Z" fill="#DAA3A7"/>
<path d="M317.446 388.311H339.919V257.851H317.446V388.311Z" fill="#DAA3A7"/>
<path d="M323.568 285.064H332.946V266.994H323.568V285.064Z" fill="#F8EDED"/>
<path d="M327.988 285.064C328.058 285.064 328.11 281.018 328.11 276.034C328.11 271.049 328.058 266.994 327.988 266.994C327.919 266.994 327.866 271.041 327.866 276.034C327.866 281.027 327.919 285.064 327.988 285.064Z" fill="#DAA3A7"/>
<path d="M323.559 273.272C326.683 273.446 329.814 273.446 332.937 273.272C329.813 273.11 326.683 273.11 323.559 273.272Z" fill="#DAA3A7"/>
<path d="M323.516 279.731C326.663 279.905 329.817 279.905 332.963 279.731C329.816 279.569 326.663 279.569 323.516 279.731Z" fill="#DAA3A7"/>
<path d="M323.568 308.857H332.946V290.787H323.568V308.857Z" fill="#F8EDED"/>
<path d="M327.988 308.858C328.058 308.858 328.11 304.812 328.11 299.828C328.11 294.843 328.058 290.797 327.988 290.797C327.919 290.797 327.866 294.835 327.866 299.828C327.866 304.821 327.919 308.858 327.988 308.858Z" fill="#DAA3A7"/>
<path d="M323.559 297.065C326.683 297.239 329.814 297.239 332.937 297.065C329.813 296.903 326.683 296.903 323.559 297.065Z" fill="#DAA3A7"/>
<path d="M323.516 303.533C326.663 303.695 329.816 303.695 332.963 303.533C329.817 303.359 326.663 303.359 323.516 303.533Z" fill="#DAA3A7"/>
<path d="M323.568 332.648H332.946V314.578H323.568V332.648Z" fill="#F8EDED"/>
<path d="M327.988 332.649C328.058 332.649 328.11 328.612 328.11 323.619C328.11 318.626 328.058 314.588 327.988 314.588C327.919 314.588 327.866 318.626 327.866 323.619C327.866 328.612 327.919 332.649 327.988 332.649Z" fill="#DAA3A7"/>
<path d="M323.559 320.867C326.683 321.029 329.813 321.029 332.937 320.867C329.814 320.693 326.683 320.693 323.559 320.867Z" fill="#DAA3A7"/>
<path d="M323.516 327.326C326.663 327.488 329.816 327.488 332.963 327.326C329.817 327.152 326.663 327.152 323.516 327.326Z" fill="#DAA3A7"/>
<path d="M323.568 356.451H332.946V338.381H323.568V356.451Z" fill="#F8EDED"/>
<path d="M327.988 356.449C328.058 356.449 328.11 352.403 328.11 347.41C328.11 342.417 328.058 338.379 327.988 338.379C327.919 338.379 327.866 342.425 327.866 347.41C327.866 352.394 327.919 356.449 327.988 356.449Z" fill="#DAA3A7"/>
<path d="M323.559 344.66C326.683 344.822 329.813 344.822 332.937 344.66C329.814 344.486 326.683 344.486 323.559 344.66Z" fill="#DAA3A7"/>
<path d="M323.516 351.12C326.663 351.282 329.816 351.282 332.963 351.12C329.816 350.958 326.663 350.958 323.516 351.12Z" fill="#DAA3A7"/>
<path d="M346.284 379.471H355.662V361.401H346.284V379.471Z" fill="#F8EDED"/>
<path d="M350.712 379.471C350.782 379.471 350.834 375.424 350.834 370.431C350.834 365.438 350.782 361.4 350.712 361.4C350.643 361.4 350.582 365.447 350.582 370.431C350.582 375.415 350.643 379.471 350.712 379.471Z" fill="#DAA3A7"/>
<path d="M346.284 367.669C349.408 367.831 352.538 367.831 355.662 367.669C352.538 367.496 349.407 367.496 346.284 367.669Z" fill="#DAA3A7"/>
<path d="M346.232 374.139C349.382 374.301 352.538 374.301 355.688 374.139C352.538 373.977 349.382 373.977 346.232 374.139Z" fill="#DAA3A7"/>
<path d="M323.568 380.244H332.946V362.174H323.568V380.244Z" fill="#F8EDED"/>
<path d="M327.988 380.242C328.058 380.242 328.11 376.196 328.11 371.211C328.11 366.227 328.058 362.172 327.988 362.172C327.919 362.172 327.866 366.218 327.866 371.211C327.866 376.204 327.919 380.242 327.988 380.242Z" fill="#DAA3A7"/>
<path d="M323.559 368.452C326.683 368.625 329.814 368.625 332.937 368.452C329.813 368.29 326.683 368.29 323.559 368.452Z" fill="#DAA3A7"/>
<path d="M323.516 374.913C326.663 375.086 329.817 375.086 332.963 374.913C329.816 374.75 326.663 374.75 323.516 374.913Z" fill="#DAA3A7"/>
<path d="M331.053 466.383H361.906V335.923H331.053V466.383Z" fill="#E9C8CA"/>
<path d="M346.779 363.145H356.157V345.074H346.779V363.145Z" fill="#F8EDED"/>
<path d="M351.199 363.144C351.268 363.144 351.329 359.098 351.329 354.105C351.329 349.112 351.268 345.074 351.199 345.074C351.129 345.074 351.077 349.121 351.077 354.105C351.077 359.089 351.129 363.144 351.199 363.144Z" fill="#DAA3A7"/>
<path d="M346.779 351.353C349.903 351.515 353.033 351.515 356.157 351.353C353.033 351.179 349.902 351.179 346.779 351.353Z" fill="#DAA3A7"/>
<path d="M346.727 357.813C349.876 357.987 353.033 357.987 356.183 357.813C353.033 357.651 349.877 357.651 346.727 357.813Z" fill="#DAA3A7"/>
<path d="M346.779 386.748H356.157V368.678H346.779V386.748Z" fill="#F8EDED"/>
<path d="M351.199 386.771C351.268 386.771 351.329 382.725 351.329 377.732C351.329 372.739 351.268 368.701 351.199 368.701C351.129 368.701 351.077 372.748 351.077 377.732C351.077 382.716 351.129 386.771 351.199 386.771Z" fill="#DAA3A7"/>
<path d="M346.779 374.954C349.903 375.117 353.033 375.117 356.157 374.954C353.033 374.781 349.902 374.781 346.779 374.954Z" fill="#DAA3A7"/>
<path d="M346.727 381.416C349.877 381.578 353.033 381.578 356.183 381.416C353.033 381.254 349.877 381.254 346.727 381.416Z" fill="#DAA3A7"/>
<path d="M346.779 410.348H356.157V392.277H346.779V410.348Z" fill="#F8EDED"/>
<path d="M351.199 410.349C351.268 410.349 351.329 406.303 351.329 401.31C351.329 396.317 351.268 392.279 351.199 392.279C351.129 392.279 351.077 396.326 351.077 401.31C351.077 406.294 351.129 410.349 351.199 410.349Z" fill="#DAA3A7"/>
<path d="M346.779 398.556C349.903 398.718 353.033 398.718 356.157 398.556C353.033 398.382 349.902 398.382 346.779 398.556Z" fill="#DAA3A7"/>
<path d="M346.727 405.009C349.882 405.172 353.044 405.172 356.2 405.009C353.05 404.835 349.894 404.835 346.744 405.009H346.727Z" fill="#DAA3A7"/>
<path d="M346.779 433.941H356.157V415.871H346.779V433.941Z" fill="#F8EDED"/>
<path d="M351.199 433.949C351.268 433.949 351.329 429.903 351.329 424.91C351.329 419.917 351.268 415.879 351.199 415.879C351.129 415.879 351.077 419.925 351.077 424.91C351.077 429.894 351.129 433.949 351.199 433.949Z" fill="#DAA3A7"/>
<path d="M346.779 422.158C349.903 422.32 353.033 422.32 356.157 422.158C353.033 421.984 349.902 421.984 346.779 422.158Z" fill="#DAA3A7"/>
<path d="M346.727 428.619C349.877 428.781 353.033 428.781 356.183 428.619C353.033 428.445 349.876 428.445 346.727 428.619Z" fill="#DAA3A7"/>
<path d="M317.932 466.383H340.414V335.923H317.932V466.383Z" fill="#DAA3A7"/>
<path d="M324.055 363.145H333.433V345.074H324.055V363.145Z" fill="#F8EDED"/>
<path d="M328.483 363.144C328.553 363.144 328.605 359.098 328.605 354.105C328.605 349.112 328.553 345.074 328.483 345.074C328.414 345.074 328.353 349.121 328.353 354.105C328.353 359.089 328.414 363.144 328.483 363.144Z" fill="#DAA3A7"/>
<path d="M324.072 351.353C327.196 351.515 330.326 351.515 333.45 351.353C330.326 351.179 327.195 351.179 324.072 351.353Z" fill="#DAA3A7"/>
<path d="M324.011 357.813C327.158 357.987 330.312 357.987 333.459 357.813C330.311 357.651 327.158 357.651 324.011 357.813Z" fill="#DAA3A7"/>
<path d="M324.055 386.938H333.433V368.867H324.055V386.938Z" fill="#F8EDED"/>
<path d="M328.483 386.937C328.553 386.937 328.605 382.891 328.605 377.907C328.605 372.922 328.553 368.867 328.483 368.867C328.414 368.867 328.353 372.914 328.353 377.907C328.353 382.9 328.414 386.937 328.483 386.937Z" fill="#DAA3A7"/>
<path d="M324.072 375.147C327.195 375.321 330.326 375.321 333.45 375.147C330.326 374.985 327.196 374.985 324.072 375.147Z" fill="#DAA3A7"/>
<path d="M324.011 381.606C327.158 381.78 330.312 381.78 333.459 381.606C330.311 381.444 327.158 381.444 324.011 381.606Z" fill="#DAA3A7"/>
<path d="M324.055 410.74H333.433V392.67H324.055V410.74Z" fill="#F8EDED"/>
<path d="M328.483 410.73C328.553 410.73 328.605 406.684 328.605 401.7C328.605 396.715 328.553 392.66 328.483 392.66C328.414 392.66 328.353 396.707 328.353 401.7C328.353 406.693 328.414 410.73 328.483 410.73Z" fill="#DAA3A7"/>
<path d="M324.072 398.93C327.195 399.104 330.326 399.104 333.45 398.93C330.326 398.768 327.196 398.768 324.072 398.93Z" fill="#DAA3A7"/>
<path d="M324.011 405.408C324.011 405.468 326.121 405.529 328.735 405.529C331.348 405.529 333.459 405.468 333.459 405.408C330.312 405.234 327.158 405.234 324.011 405.408Z" fill="#DAA3A7"/>
<path d="M324.055 434.523H333.433V416.453H324.055V434.523Z" fill="#F8EDED"/>
<path d="M328.483 434.532C328.553 434.532 328.605 430.494 328.605 425.501C328.605 420.508 328.553 416.471 328.483 416.471C328.414 416.471 328.353 420.508 328.353 425.501C328.353 430.494 328.414 434.532 328.483 434.532Z" fill="#DAA3A7"/>
<path d="M324.072 422.74C327.196 422.902 330.326 422.902 333.45 422.74C330.326 422.566 327.195 422.566 324.072 422.74Z" fill="#DAA3A7"/>
<path d="M324.011 429.201C327.158 429.363 330.311 429.363 333.459 429.201C330.312 429.027 327.158 429.027 324.011 429.201Z" fill="#DAA3A7"/>
<path d="M346.779 457.543H356.157V439.473H346.779V457.543Z" fill="#F8EDED"/>
<path d="M351.199 457.544C351.268 457.544 351.329 453.506 351.329 448.513C351.329 443.52 351.268 439.482 351.199 439.482C351.129 439.482 351.077 443.52 351.077 448.513C351.077 453.506 351.129 457.544 351.199 457.544Z" fill="#DAA3A7"/>
<path d="M346.779 445.759C349.903 445.921 353.033 445.921 356.157 445.759C353.033 445.585 349.902 445.585 346.779 445.759Z" fill="#DAA3A7"/>
<path d="M346.727 452.22C349.877 452.382 353.033 452.382 356.183 452.22C353.033 452.046 349.876 452.046 346.727 452.22Z" fill="#DAA3A7"/>
<path d="M324.055 458.324H333.433V440.254H324.055V458.324Z" fill="#F8EDED"/>
<path d="M328.483 458.324C328.553 458.324 328.605 454.278 328.605 449.285C328.605 444.292 328.553 440.254 328.483 440.254C328.414 440.254 328.353 444.3 328.353 449.285C328.353 454.269 328.414 458.324 328.483 458.324Z" fill="#DAA3A7"/>
<path d="M324.072 446.531C327.196 446.693 330.326 446.693 333.45 446.531C330.326 446.357 327.195 446.357 324.072 446.531Z" fill="#DAA3A7"/>
<path d="M324.011 452.993C327.158 453.155 330.311 453.155 333.459 452.993C330.311 452.831 327.158 452.831 324.011 452.993Z" fill="#DAA3A7"/>
<path d="M88.8464 466.201H134.921L134.921 259.857H88.8464L88.8464 466.201Z" fill="#E9C8CA"/>
<path d="M112.327 300.502H126.333V273.514H112.327V300.502Z" fill="#F8EDED"/>
<path d="M118.935 300.502C119.039 300.502 119.126 294.423 119.126 287.008C119.126 279.592 119.039 273.514 118.935 273.514C118.831 273.514 118.752 279.592 118.752 287.008C118.752 294.423 118.831 300.502 118.935 300.502Z" fill="#DAA3A7"/>
<path d="M112.326 282.894C114.657 283.078 116.996 283.139 119.334 283.076C121.668 283.139 124.004 283.078 126.333 282.894C124.005 282.704 121.668 282.64 119.334 282.703C116.996 282.64 114.657 282.704 112.326 282.894Z" fill="#DAA3A7"/>
<path d="M112.257 292.54C114.605 292.73 116.962 292.794 119.317 292.731C121.672 292.794 124.028 292.73 126.376 292.54C124.028 292.356 121.671 292.295 119.317 292.358C116.962 292.295 114.605 292.356 112.257 292.54Z" fill="#DAA3A7"/>
<path d="M112.327 335.758H126.333V308.77H112.327V335.758Z" fill="#F8EDED"/>
<path d="M118.935 335.748C119.039 335.748 119.126 329.669 119.126 322.254C119.126 314.838 119.039 308.76 118.935 308.76C118.831 308.76 118.752 314.838 118.752 322.254C118.752 329.669 118.831 335.748 118.935 335.748Z" fill="#DAA3A7"/>
<path d="M112.326 318.173C114.657 318.363 116.996 318.427 119.334 318.364C121.668 318.427 124.005 318.363 126.333 318.173C124.004 317.989 121.668 317.928 119.334 317.991C116.996 317.928 114.657 317.989 112.326 318.173Z" fill="#DAA3A7"/>
<path d="M112.257 327.794C114.606 327.973 116.962 328.034 119.317 327.977C121.671 328.034 124.028 327.973 126.376 327.794C124.028 327.604 121.672 327.541 119.317 327.603C116.962 327.541 114.605 327.604 112.257 327.794Z" fill="#DAA3A7"/>
<path d="M112.327 371.004H126.333V344.016H112.327V371.004Z" fill="#F8EDED"/>
<path d="M118.935 371.004C119.039 371.004 119.126 364.925 119.126 357.51C119.126 350.094 119.039 344.016 118.935 344.016C118.831 344.016 118.752 350.051 118.752 357.51C118.752 364.969 118.831 371.004 118.935 371.004Z" fill="#DAA3A7"/>
<path d="M112.326 353.394C114.657 353.573 116.996 353.634 119.334 353.576C121.668 353.634 124.004 353.573 126.333 353.394C124.005 353.204 121.668 353.14 119.334 353.203C116.996 353.14 114.657 353.204 112.326 353.394Z" fill="#DAA3A7"/>
<path d="M112.257 363.041C114.605 363.231 116.962 363.294 119.317 363.232C121.672 363.294 124.028 363.231 126.376 363.041C124.028 362.851 121.672 362.787 119.317 362.85C116.962 362.787 114.605 362.851 112.257 363.041Z" fill="#DAA3A7"/>
<path d="M112.327 406.25H126.333V379.262H112.327V406.25Z" fill="#F8EDED"/>
<path d="M118.935 406.25C119.039 406.25 119.126 400.171 119.126 392.756C119.126 385.34 119.039 379.262 118.935 379.262C118.831 379.262 118.752 385.34 118.752 392.756C118.752 400.171 118.831 406.25 118.935 406.25Z" fill="#DAA3A7"/>
<path d="M112.326 388.64C114.657 388.83 116.996 388.894 119.334 388.831C121.668 388.894 124.005 388.83 126.333 388.64C124.005 388.45 121.668 388.386 119.334 388.449C116.996 388.386 114.657 388.45 112.326 388.64Z" fill="#DAA3A7"/>
<path d="M112.257 398.287C114.605 398.477 116.962 398.541 119.317 398.478C121.672 398.541 124.028 398.477 126.376 398.287C124.028 398.108 121.671 398.047 119.317 398.105C116.962 398.047 114.606 398.108 112.257 398.287Z" fill="#DAA3A7"/>
<path d="M69.2568 466.201H102.827L102.827 259.857H69.2568L69.2568 466.201Z" fill="#DAA3A7"/>
<path d="M78.3916 300.502H92.3979V273.514H78.3916V300.502Z" fill="#F8EDED"/>
<path d="M85 300.502C85.1042 300.502 85.191 294.423 85.191 287.008C85.191 279.592 85.1042 273.514 85 273.514C84.8958 273.514 84.8176 279.592 84.8176 287.008C84.8176 294.423 84.8958 300.502 85 300.502Z" fill="#DAA3A7"/>
<path d="M78.3916 282.894C80.7197 283.078 83.0559 283.139 85.3904 283.076C87.7279 283.139 90.067 283.078 92.398 282.894C90.0673 282.704 87.728 282.64 85.3904 282.703C83.0558 282.64 80.7194 282.704 78.3916 282.894Z" fill="#DAA3A7"/>
<path d="M78.3308 292.54C80.6789 292.73 83.0355 292.794 85.3904 292.731C87.7454 292.794 90.102 292.73 92.4501 292.54C90.1017 292.356 87.7452 292.295 85.3904 292.358C83.0357 292.295 80.6792 292.356 78.3308 292.54Z" fill="#DAA3A7"/>
<path d="M78.3916 336.035H92.3979V309.047H78.3916V336.035Z" fill="#F8EDED"/>
<path d="M85 336.043C85.1042 336.043 85.191 329.964 85.191 322.549C85.191 315.133 85.1042 309.055 85 309.055C84.8958 309.055 84.8176 315.09 84.8176 322.549C84.8176 330.008 84.8958 336.043 85 336.043Z" fill="#DAA3A7"/>
<path d="M78.3916 318.424C80.7194 318.614 83.0558 318.678 85.3904 318.615C87.728 318.678 90.0673 318.614 92.398 318.424C90.0667 318.245 87.7279 318.184 85.3904 318.242C83.0559 318.184 80.72 318.245 78.3916 318.424Z" fill="#DAA3A7"/>
<path d="M78.3308 328.082C80.6792 328.266 83.0357 328.327 85.3904 328.264C87.7452 328.327 90.1017 328.266 92.4501 328.082C90.102 327.892 87.7454 327.828 85.3904 327.891C83.0355 327.828 80.6789 327.892 78.3308 328.082Z" fill="#DAA3A7"/>
<path d="M78.3916 371.586H92.3979V344.598H78.3916V371.586Z" fill="#F8EDED"/>
<path d="M85 371.578C85.1042 371.578 85.191 365.543 85.191 358.084C85.191 350.625 85.1042 344.59 85 344.59C84.8958 344.59 84.8176 350.668 84.8176 358.084C84.8176 365.5 84.8958 371.578 85 371.578Z" fill="#DAA3A7"/>
<path d="M78.3916 353.966C80.7194 354.156 83.0558 354.22 85.3904 354.157C87.728 354.22 90.0673 354.156 92.398 353.966C90.067 353.782 87.7279 353.721 85.3904 353.784C83.0559 353.721 80.7197 353.782 78.3916 353.966Z" fill="#DAA3A7"/>
<path d="M78.3308 363.623C80.6792 363.807 83.0357 363.868 85.3904 363.805C87.7452 363.868 90.1017 363.807 92.4501 363.623C90.102 363.433 87.7454 363.369 85.3904 363.432C83.0355 363.369 80.6789 363.433 78.3308 363.623Z" fill="#DAA3A7"/>
<path d="M78.3916 407.117H92.3979V380.129H78.3916V407.117Z" fill="#F8EDED"/>
<path d="M85 407.117C85.1042 407.117 85.191 401.039 85.191 393.623C85.191 386.207 85.1042 380.129 85 380.129C84.8958 380.129 84.8176 386.207 84.8176 393.623C84.8176 401.039 84.8958 407.117 85 407.117Z" fill="#DAA3A7"/>
<path d="M78.3916 389.509C80.7197 389.694 83.0559 389.754 85.3904 389.692C87.7279 389.755 90.067 389.694 92.398 389.509C90.0673 389.319 87.728 389.255 85.3904 389.318C83.0558 389.256 80.7194 389.319 78.3916 389.509Z" fill="#DAA3A7"/>
<path d="M78.3308 399.155C80.6789 399.346 83.0355 399.409 85.3904 399.347C87.7454 399.409 90.102 399.346 92.4501 399.155C90.1017 398.971 87.7452 398.91 85.3904 398.973C83.0357 398.91 80.6792 398.971 78.3308 399.155Z" fill="#DAA3A7"/>
<path d="M112.327 441.496H126.333V414.508H112.327V441.496Z" fill="#F8EDED"/>
<path d="M118.935 441.478C119.039 441.478 119.126 435.4 119.126 427.984C119.126 420.569 119.039 414.49 118.935 414.49C118.831 414.49 118.752 420.525 118.752 427.984C118.752 435.443 118.831 441.478 118.935 441.478Z" fill="#DAA3A7"/>
<path d="M112.326 423.887C114.657 424.077 116.996 424.141 119.334 424.078C121.668 424.141 124.005 424.077 126.333 423.887C124.004 423.708 121.668 423.647 119.334 423.705C116.996 423.647 114.657 423.708 112.326 423.887Z" fill="#DAA3A7"/>
<path d="M112.257 433.542C114.605 433.727 116.962 433.788 119.317 433.725C121.671 433.788 124.028 433.727 126.376 433.542C124.028 433.352 121.672 433.289 119.317 433.351C116.962 433.289 114.605 433.352 112.257 433.542Z" fill="#DAA3A7"/>
<path d="M78.3916 442.66H92.3979V415.672H78.3916V442.66Z" fill="#F8EDED"/>
<path d="M85 442.66C85.1042 442.66 85.191 436.582 85.191 429.166C85.191 421.75 85.1042 415.672 85 415.672C84.8958 415.672 84.8176 421.75 84.8176 429.166C84.8176 436.582 84.8958 442.66 85 442.66Z" fill="#DAA3A7"/>
<path d="M78.3916 425.05C80.7197 425.235 83.0559 425.295 85.3904 425.233C87.7279 425.296 90.067 425.235 92.398 425.05C90.0673 424.86 87.728 424.796 85.3904 424.859C83.0558 424.797 80.7194 424.86 78.3916 425.05Z" fill="#DAA3A7"/>
<path d="M78.3308 434.696C80.6789 434.887 83.0355 434.95 85.3904 434.888C87.7454 434.95 90.102 434.887 92.4501 434.696C90.1017 434.512 87.7452 434.451 85.3904 434.514C83.0357 434.451 80.6792 434.512 78.3308 434.696Z" fill="#DAA3A7"/>
<path d="M522.184 466.479H565.983V281.244H522.184V466.479Z" fill="#E9C8CA"/>
<path d="M544.509 319.875H557.821V294.216H544.509V319.875Z" fill="#F8EDED"/>
<path d="M550.787 319.911C550.883 319.911 550.97 314.171 550.97 307.085C550.97 300 550.883 294.26 550.787 294.26C550.692 294.26 550.614 300 550.614 307.085C550.614 314.171 550.709 319.911 550.787 319.911Z" fill="#DAA3A7"/>
<path d="M544.509 303.133C548.943 303.376 553.387 303.376 557.82 303.133C553.386 302.901 548.943 302.901 544.509 303.133Z" fill="#DAA3A7"/>
<path d="M544.44 312.312C548.909 312.555 553.387 312.555 557.856 312.312C553.387 312.081 548.909 312.081 544.44 312.312Z" fill="#DAA3A7"/>
<path d="M544.509 353.395H557.821V327.735H544.509V353.395Z" fill="#F8EDED"/>
<path d="M550.787 353.394C550.883 353.394 550.97 347.645 550.97 340.568C550.97 333.491 550.883 327.734 550.787 327.734C550.692 327.734 550.614 333.483 550.614 340.568C550.614 347.654 550.709 353.394 550.787 353.394Z" fill="#DAA3A7"/>
<path d="M544.509 336.653C548.943 336.885 553.386 336.885 557.82 336.653C553.387 336.41 548.943 336.41 544.509 336.653Z" fill="#DAA3A7"/>
<path d="M544.44 345.82C548.909 346.063 553.387 346.063 557.856 345.82C553.387 345.589 548.909 345.589 544.44 345.82Z" fill="#DAA3A7"/>
<path d="M544.509 386.902H557.821V361.243H544.509V386.902Z" fill="#F8EDED"/>
<path d="M550.787 386.904C550.883 386.904 550.97 381.164 550.97 374.078C550.97 366.993 550.883 361.244 550.787 361.244C550.692 361.244 550.614 366.993 550.614 374.078C550.614 381.164 550.709 386.904 550.787 386.904Z" fill="#DAA3A7"/>
<path d="M544.509 370.161C548.943 370.392 553.386 370.392 557.82 370.161C553.387 369.918 548.943 369.918 544.509 370.161Z" fill="#DAA3A7"/>
<path d="M544.44 379.341C548.909 379.572 553.387 379.572 557.856 379.341C553.387 379.097 548.909 379.097 544.44 379.341Z" fill="#DAA3A7"/>
<path d="M544.509 420.412H557.821V394.753H544.509V420.412Z" fill="#F8EDED"/>
<path d="M550.787 420.413C550.883 420.413 550.97 414.673 550.97 407.587C550.97 400.501 550.883 394.762 550.787 394.762C550.692 394.762 550.614 400.501 550.614 407.587C550.614 414.673 550.709 420.413 550.787 420.413Z" fill="#DAA3A7"/>
<path d="M544.509 403.672C548.943 403.915 553.387 403.915 557.82 403.672C553.386 403.44 548.943 403.44 544.509 403.672Z" fill="#DAA3A7"/>
<path d="M544.44 412.823C548.909 413.055 553.387 413.055 557.856 412.823C553.387 412.58 548.909 412.58 544.44 412.823Z" fill="#DAA3A7"/>
<path d="M503.558 466.479H535.47V281.244H503.558V466.479Z" fill="#DAA3A7"/>
<path d="M512.25 319.875H525.562V294.216H512.25V319.875Z" fill="#F8EDED"/>
<path d="M518.529 319.911C518.624 319.911 518.702 314.171 518.702 307.085C518.702 300 518.624 294.26 518.529 294.26C518.433 294.26 518.346 300 518.346 307.085C518.346 314.171 518.424 319.911 518.529 319.911Z" fill="#DAA3A7"/>
<path d="M512.241 303.133C516.675 303.376 521.119 303.376 525.553 303.133C521.119 302.901 516.675 302.901 512.241 303.133Z" fill="#DAA3A7"/>
<path d="M512.172 312.312C516.644 312.555 521.125 312.555 525.597 312.312C521.125 312.081 516.644 312.081 512.172 312.312Z" fill="#DAA3A7"/>
<path d="M512.25 353.664H525.562V328.005H512.25V353.664Z" fill="#F8EDED"/>
<path d="M518.529 353.663C518.624 353.663 518.702 347.923 518.702 340.837C518.702 333.751 518.624 328.012 518.529 328.012C518.433 328.012 518.346 333.751 518.346 340.837C518.346 347.923 518.424 353.663 518.529 353.663Z" fill="#DAA3A7"/>
<path d="M512.241 336.922C516.675 337.165 521.119 337.165 525.553 336.922C521.119 336.69 516.675 336.69 512.241 336.922Z" fill="#DAA3A7"/>
<path d="M512.172 346.1C516.644 346.332 521.125 346.332 525.597 346.1C521.125 345.857 516.644 345.857 512.172 346.1Z" fill="#DAA3A7"/>
<path d="M512.25 387.451H525.562V361.792H512.25V387.451Z" fill="#F8EDED"/>
<path d="M518.529 387.45C518.624 387.45 518.702 381.71 518.702 374.624C518.702 367.539 518.624 361.799 518.529 361.799C518.433 361.799 518.346 367.539 518.346 374.624C518.346 381.71 518.424 387.45 518.529 387.45Z" fill="#DAA3A7"/>
<path d="M512.241 370.709C516.675 370.952 521.119 370.952 525.553 370.709C521.119 370.477 516.675 370.477 512.241 370.709Z" fill="#DAA3A7"/>
<path d="M512.172 379.887C516.644 380.119 521.125 380.119 525.597 379.887C521.125 379.644 516.644 379.644 512.172 379.887Z" fill="#DAA3A7"/>
<path d="M512.25 421.236H525.562V395.577H512.25V421.236Z" fill="#F8EDED"/>
<path d="M518.529 421.239C518.624 421.239 518.702 415.499 518.702 408.413C518.702 401.328 518.624 395.588 518.529 395.588C518.433 395.588 518.346 401.328 518.346 408.413C518.346 415.499 518.424 421.239 518.529 421.239Z" fill="#DAA3A7"/>
<path d="M512.241 404.496C516.675 404.739 521.119 404.739 525.553 404.496C521.119 404.264 516.675 404.264 512.241 404.496Z" fill="#DAA3A7"/>
<path d="M512.172 413.692C516.644 413.924 521.125 413.924 525.597 413.692C521.125 413.449 516.644 413.449 512.172 413.692Z" fill="#DAA3A7"/>
<path d="M544.509 453.93H557.821V428.27H544.509V453.93Z" fill="#F8EDED"/>
<path d="M550.787 453.931C550.883 453.931 550.97 448.183 550.97 441.097C550.97 434.011 550.883 428.271 550.787 428.271C550.692 428.271 550.614 434.011 550.614 441.097C550.614 448.183 550.709 453.931 550.787 453.931Z" fill="#DAA3A7"/>
<path d="M544.509 437.18C548.943 437.423 553.387 437.423 557.82 437.18C553.386 436.948 548.943 436.948 544.509 437.18Z" fill="#DAA3A7"/>
<path d="M544.44 446.359C548.909 446.602 553.387 446.602 557.856 446.359C553.387 446.128 548.909 446.128 544.44 446.359Z" fill="#DAA3A7"/>
<path d="M512.25 455.023H525.562V429.364H512.25V455.023Z" fill="#F8EDED"/>
<path d="M518.529 455.026C518.624 455.026 518.702 449.286 518.702 442.2C518.702 435.115 518.624 429.375 518.529 429.375C518.433 429.375 518.346 435.115 518.346 442.2C518.346 449.286 518.424 455.026 518.529 455.026Z" fill="#DAA3A7"/>
<path d="M512.241 438.283C516.675 438.526 521.119 438.526 525.553 438.283C521.119 438.051 516.675 438.051 512.241 438.283Z" fill="#DAA3A7"/>
<path d="M512.172 447.46C516.644 447.691 521.125 447.691 525.597 447.46C521.125 447.217 516.644 447.217 512.172 447.46Z" fill="#DAA3A7"/>
<path d="M570.672 466.391H596.896V355.512H570.672V466.391Z" fill="#E9C8CA"/>
<path d="M584.036 378.637H592.007V363.276H584.036V378.637Z" fill="#F8EDED"/>
<path d="M587.805 378.636C587.857 378.636 587.909 375.163 587.909 370.96C587.909 366.757 587.857 363.275 587.805 363.275C587.753 363.275 587.692 366.749 587.692 370.96C587.692 375.172 587.744 378.636 587.805 378.636Z" fill="#DAA3A7"/>
<path d="M584.045 368.615C584.045 368.667 585.825 368.719 588.022 368.719C590.219 368.719 592.007 368.667 592.007 368.615C589.355 368.464 586.697 368.464 584.045 368.615Z" fill="#DAA3A7"/>
<path d="M584.001 374.104C586.677 374.243 589.358 374.243 592.033 374.104C589.358 373.965 586.677 373.965 584.001 374.104Z" fill="#DAA3A7"/>
<path d="M584.036 398.695H592.007V383.334H584.036V398.695Z" fill="#F8EDED"/>
<path d="M587.805 398.695C587.857 398.695 587.909 395.222 587.909 391.019C587.909 386.816 587.857 383.334 587.805 383.334C587.753 383.334 587.692 386.807 587.692 391.019C587.692 395.23 587.744 398.695 587.805 398.695Z" fill="#DAA3A7"/>
<path d="M584.045 388.675C586.697 388.814 589.355 388.814 592.007 388.675C589.355 388.525 586.697 388.525 584.045 388.675Z" fill="#DAA3A7"/>
<path d="M584.001 394.163C586.676 394.313 589.358 394.313 592.033 394.163C589.358 394.024 586.677 394.024 584.001 394.163Z" fill="#DAA3A7"/>
<path d="M584.036 418.754H592.007V403.393H584.036V418.754Z" fill="#F8EDED"/>
<path d="M587.805 418.754C587.857 418.754 587.909 415.28 587.909 411.077C587.909 406.875 587.857 403.393 587.805 403.393C587.753 403.393 587.692 406.866 587.692 411.077C587.692 415.289 587.744 418.754 587.805 418.754Z" fill="#DAA3A7"/>
<path d="M584.045 408.735C586.697 408.874 589.355 408.874 592.007 408.735C589.355 408.596 586.697 408.596 584.045 408.735Z" fill="#DAA3A7"/>
<path d="M584.001 414.221C586.676 414.372 589.358 414.372 592.033 414.221C592.033 414.169 590.236 414.117 588.013 414.117C585.79 414.117 584.001 414.169 584.001 414.221Z" fill="#DAA3A7"/>
<path d="M584.036 438.812H592.007V423.452H584.036V438.812Z" fill="#F8EDED"/>
<path d="M587.805 438.811C587.857 438.811 587.909 435.338 587.909 431.135C587.909 426.932 587.857 423.459 587.805 423.459C587.753 423.459 587.692 426.889 587.692 431.135C587.692 435.381 587.744 438.811 587.805 438.811Z" fill="#DAA3A7"/>
<path d="M584.045 428.792C586.697 428.931 589.355 428.931 592.007 428.792C589.355 428.653 586.697 428.653 584.045 428.792Z" fill="#DAA3A7"/>
<path d="M584.001 434.28C586.676 434.43 589.358 434.43 592.033 434.28C592.033 434.228 590.236 434.176 588.013 434.176C585.79 434.176 584.001 434.228 584.001 434.28Z" fill="#DAA3A7"/>
<path d="M559.532 466.391H578.635V355.512H559.532V466.391Z" fill="#DAA3A7"/>
<path d="M564.724 378.637H572.696V363.276H564.724V378.637Z" fill="#F8EDED"/>
<path d="M568.492 378.636C568.544 378.636 568.596 375.163 568.596 370.96C568.596 366.757 568.544 363.275 568.492 363.275C568.44 363.275 568.379 366.749 568.379 370.96C568.379 375.172 568.431 378.636 568.492 378.636Z" fill="#DAA3A7"/>
<path d="M564.733 368.615C564.733 368.667 566.513 368.719 568.71 368.719C570.907 368.719 572.695 368.667 572.695 368.615C570.043 368.464 567.385 368.464 564.733 368.615Z" fill="#DAA3A7"/>
<path d="M564.689 374.104C567.365 374.243 570.046 374.243 572.721 374.104C570.046 373.965 567.365 373.965 564.689 374.104Z" fill="#DAA3A7"/>
<path d="M564.724 398.861H572.696V383.5H564.724V398.861Z" fill="#F8EDED"/>
<path d="M568.492 398.859C568.544 398.859 568.596 395.386 568.596 391.183C568.596 386.98 568.544 383.498 568.492 383.498C568.44 383.498 568.379 386.971 568.379 391.183C568.379 395.394 568.431 398.859 568.492 398.859Z" fill="#DAA3A7"/>
<path d="M564.733 388.839C564.733 388.892 566.513 388.944 568.71 388.944C570.907 388.944 572.695 388.892 572.695 388.839C570.043 388.689 567.385 388.689 564.733 388.839Z" fill="#DAA3A7"/>
<path d="M564.689 394.327C567.365 394.466 570.046 394.466 572.721 394.327C570.046 394.188 567.365 394.188 564.689 394.327Z" fill="#DAA3A7"/>
<path d="M564.724 419.084H572.696V403.723H564.724V419.084Z" fill="#F8EDED"/>
<path d="M568.492 419.084C568.544 419.084 568.596 415.61 568.596 411.407C568.596 407.205 568.544 403.723 568.492 403.723C568.44 403.723 568.379 407.196 568.379 411.407C568.379 415.619 568.431 419.084 568.492 419.084Z" fill="#DAA3A7"/>
<path d="M564.733 409.063C567.385 409.202 570.043 409.202 572.695 409.063C570.043 408.924 567.385 408.924 564.733 409.063Z" fill="#DAA3A7"/>
<path d="M564.689 414.561C567.364 414.712 570.046 414.712 572.721 414.561C570.046 414.422 567.365 414.422 564.689 414.561Z" fill="#DAA3A7"/>
<path d="M564.724 439.309H572.696V423.948H564.724V439.309Z" fill="#F8EDED"/>
<path d="M568.492 439.308C568.544 439.308 568.596 435.835 568.596 431.632C568.596 427.429 568.544 423.947 568.492 423.947C568.44 423.947 568.379 427.421 568.379 431.632C568.379 435.844 568.431 439.308 568.492 439.308Z" fill="#DAA3A7"/>
<path d="M564.733 429.321C567.385 429.46 570.043 429.46 572.695 429.321C570.043 429.182 567.385 429.182 564.733 429.321Z" fill="#DAA3A7"/>
<path d="M564.689 434.776C567.364 434.927 570.046 434.927 572.721 434.776C572.721 434.724 570.924 434.672 568.701 434.672C566.478 434.672 564.689 434.724 564.689 434.776Z" fill="#DAA3A7"/>
<path d="M584.036 458.871H592.007V443.51H584.036V458.871Z" fill="#F8EDED"/>
<path d="M587.805 458.846C587.857 458.846 587.909 455.373 587.909 451.17C587.909 446.968 587.857 443.494 587.805 443.494C587.753 443.494 587.692 446.968 587.692 451.17C587.692 455.373 587.744 458.846 587.805 458.846Z" fill="#DAA3A7"/>
<path d="M584.045 448.85C586.697 448.989 589.355 448.989 592.007 448.85C589.355 448.711 586.697 448.711 584.045 448.85Z" fill="#DAA3A7"/>
<path d="M584.001 454.347C584.001 454.399 585.799 454.451 588.013 454.451C590.227 454.451 592.033 454.399 592.033 454.347C589.358 454.197 586.676 454.197 584.001 454.347Z" fill="#DAA3A7"/>
<path d="M564.724 459.541H572.696V444.18H564.724V459.541Z" fill="#F8EDED"/>
<path d="M568.492 459.533C568.544 459.533 568.596 456.059 568.596 451.857C568.596 447.654 568.544 444.172 568.492 444.172C568.44 444.172 568.379 447.645 568.379 451.857C568.379 456.068 568.431 459.533 568.492 459.533Z" fill="#DAA3A7"/>
<path d="M564.733 449.51C567.385 449.649 570.043 449.649 572.695 449.51C570.043 449.372 567.385 449.372 564.733 449.51Z" fill="#DAA3A7"/>
<path d="M564.689 454.999C567.364 455.149 570.046 455.149 572.721 454.999C572.721 454.947 570.924 454.895 568.701 454.895C566.478 454.895 564.689 454.947 564.689 454.999Z" fill="#DAA3A7"/>
<path d="M373.741 150.366C374.15 147.37 369.921 144.904 366.743 144.652C365.232 144.53 363.66 144.756 362.218 144.261C359.11 143.176 357.877 139.155 354.829 137.879C352.563 136.924 349.949 137.775 347.752 138.877C345.555 139.98 343.41 141.378 340.918 141.535C338.782 141.674 336.463 140.883 334.588 141.925C333.198 142.707 332.469 144.313 331.184 145.26C329.845 146.08 328.299 146.498 326.729 146.467C325.165 146.427 323.607 146.68 322.136 147.214C320.712 147.865 319.531 149.367 319.835 150.904L373.741 150.366Z" fill="#E9C8CA"/>
<path d="M494.892 110.771C495.309 107.775 491.08 105.309 487.902 105.048C486.382 104.927 484.811 105.161 483.369 104.657C480.26 103.581 479.027 99.5603 475.988 98.2751C473.713 97.3199 471.099 98.1709 468.903 99.2824C466.706 100.394 464.561 101.783 462.069 101.94C459.933 102.078 457.614 101.28 455.747 102.33C454.349 103.103 453.62 104.71 452.335 105.656C450.999 106.485 449.451 106.904 447.88 106.863C446.315 106.826 444.757 107.082 443.286 107.618C441.862 108.27 440.681 109.772 440.985 111.3L494.892 110.771Z" fill="#E9C8CA"/>
<path d="M73.9892 233.528C74.406 230.532 70.1772 228.066 67.0425 227.814C65.5229 227.692 63.9512 227.927 62.5184 227.423C59.4011 226.338 58.1767 222.317 55.1288 221.041C52.8538 220.086 50.2488 220.937 48.0432 222.04C45.8376 223.142 43.7015 224.54 41.218 224.697C39.0732 224.836 36.7547 224.045 34.8878 225.087C33.4898 225.869 32.7603 227.475 31.4752 228.422C30.1113 229.248 28.5361 229.658 26.9425 229.603C25.3782 229.564 23.8204 229.818 22.3489 230.35C20.9335 231.001 19.7439 232.503 20.0478 234.04L73.9892 233.528Z" fill="#E9C8CA"/>
<path d="M248.795 117.379C249.299 113.741 244.167 110.754 240.311 110.432C238.479 110.285 236.569 110.563 234.823 109.955C231.055 108.644 229.544 103.772 225.862 102.218C223.109 101.054 219.94 102.088 217.274 103.434C214.608 104.78 211.969 106.464 208.99 106.655C206.385 106.82 203.58 105.856 201.314 107.124C199.621 108.071 198.709 110.016 197.181 111.171C195.652 112.325 193.664 112.534 191.78 112.629C189.895 112.725 187.924 112.751 186.205 113.541C184.486 114.331 183.062 116.146 183.418 118.013L248.795 117.379Z" fill="#DAA3A7"/>
<path d="M595.498 250.444C596.002 246.814 590.87 243.818 587.014 243.497C585.173 243.349 583.272 243.627 581.526 243.019C577.758 241.708 576.247 236.828 572.565 235.282C569.812 234.119 566.643 235.152 563.977 236.498C561.311 237.844 558.672 239.529 555.693 239.72C553.088 239.885 550.283 238.921 548.017 240.189C546.324 241.135 545.412 243.08 543.884 244.226C542.355 245.373 540.41 245.59 538.474 245.694C536.537 245.798 534.627 245.815 532.908 246.606C531.188 247.396 529.756 249.211 530.12 251.078L595.498 250.444Z" fill="#DAA3A7"/>
<path d="M595.072 466.382H593.613H589.324L572.825 466.425L512.163 466.495L312.053 466.66L111.892 466.59L51.2381 466.521L34.7396 466.477H30.45H28.9912H30.45H34.7396L51.2381 466.434L111.892 466.364L312.053 466.295L512.172 466.364L572.834 466.434L589.332 466.477H593.622L595.072 466.382Z" fill="#374151"/>
<path d="M261.925 154.752H213.576V183.129H261.925V154.752Z" fill="#DAA3A7"/>
<path d="M239.027 153.807H190.677V182.184H239.027V153.807Z" fill="#E9C8CA"/>
<path d="M333.138 180.934H123.321V192.37H333.138V180.934Z" fill="#DAA3A7"/>
<path d="M264.999 149.256H185.702V155.412H264.999V149.256Z" fill="#DAA3A7"/>
<path d="M281.966 466.392L134.426 466.201L134.174 192.369H281.966V466.392Z" fill="#E9C8CA"/>
<path d="M166.608 209.711H149.623V240.251H166.608V209.711Z" fill="#4B5563"/>
<path d="M166.608 253.883H149.623V284.422H166.608V253.883Z" fill="#4B5563"/>
<path d="M166.608 298.055H149.623V328.594H166.608V298.055Z" fill="#4B5563"/>
<path d="M166.608 342.227H149.623V372.766H166.608V342.227Z" fill="#4B5563"/>
<path d="M166.608 383.291H149.623V413.831H166.608V383.291Z" fill="#4B5563"/>
<path d="M264.313 209.711H247.328V240.251H264.313V209.711Z" fill="#4B5563"/>
<path d="M216.103 162.455H200.664V182.392H216.103V162.455Z" fill="#4B5563"/>
<path d="M264.313 253.883H247.328V284.422H264.313V253.883Z" fill="#4B5563"/>
<path d="M264.313 298.055H247.328V328.594H264.313V298.055Z" fill="#4B5563"/>
<path d="M264.313 342.227H247.328V372.766H264.313V342.227Z" fill="#4B5563"/>
<path d="M264.313 383.291H247.328V413.831H264.313V383.291Z" fill="#4B5563"/>
<path d="M231.35 192.369H181.273V466.383H231.35V192.369Z" fill="#4B5563"/>
<g opacity="0.3">
<path d="M231.35 277.225L181.272 318.948V334.197L231.35 291.787V277.225Z" fill="#F8EDED"/>
</g>
<g opacity="0.3">
<path d="M231.35 197.492L181.272 239.216V254.464L231.35 212.054V197.492Z" fill="#F8EDED"/>
</g>
<g opacity="0.3">
<path d="M231.35 310.871L181.272 352.595V383.291L231.35 341.046V310.871Z" fill="#F8EDED"/>
</g>
<path d="M323.299 189.834H281.975V466.158H323.299V189.834Z" fill="#DAA3A7"/>
<path d="M323.985 466.149C323.864 466.149 323.629 410.427 323.464 341.698C323.299 272.968 323.256 217.238 323.386 217.238C323.516 217.238 323.742 272.951 323.916 341.698C324.089 410.444 324.116 466.149 323.985 466.149Z" fill="#374151"/>
<path d="M312.845 209.711H295.86V240.251H312.845V209.711Z" fill="#374151"/>
<path d="M312.845 253.883H295.86V284.422H312.845V253.883Z" fill="#374151"/>
<path d="M312.845 298.055H295.86V328.594H312.845V298.055Z" fill="#374151"/>
<path d="M312.845 342.227H295.86V372.766H312.845V342.227Z" fill="#374151"/>
<path d="M312.845 383.291H295.86V413.831H312.845V383.291Z" fill="#374151"/>
<path d="M312.845 426.309H295.86V456.848H312.845V426.309Z" fill="#374151"/>
<path d="M234.685 414.482H177.158V420.231H234.685V414.482Z" fill="#E9C8CA"/>
<path d="M231.35 242.1H181.273V245.443H231.35V242.1Z" fill="#374151"/>
<path d="M231.35 290.414H181.273V293.757H231.35V290.414Z" fill="#374151"/>
<path d="M230.96 378.609H180.883V381.952H230.96V378.609Z" fill="#374151"/>
<path d="M233.253 336.496H183.175V339.839H233.253V336.496Z" fill="#374151"/>
<path d="M221.417 348.845C221.495 348.94 214.019 355.47 204.727 363.433C195.436 371.396 187.821 377.769 187.734 377.674C187.647 377.578 195.132 371.048 204.432 363.086C213.732 355.123 221.33 348.749 221.417 348.845Z" fill="#374151"/>
<path d="M221.842 378.507C221.929 378.602 214.453 385.132 205.153 393.095C195.853 401.058 188.246 407.431 188.168 407.336C188.09 407.24 195.558 400.71 204.858 392.756C214.158 384.802 221.764 378.411 221.842 378.507Z" fill="#374151"/>
<path d="M221.235 305.062C221.313 305.158 215.834 309.951 208.991 315.769C202.149 321.587 196.53 326.189 196.444 326.128C196.357 326.067 201.845 321.239 208.696 315.421C215.547 309.603 221.157 304.966 221.235 305.062Z" fill="#374151"/>
<path d="M207.54 310.508C206.06 312.16 204.473 313.715 202.791 315.162C201.204 316.72 199.516 318.17 197.737 319.504C199.211 317.842 200.798 316.284 202.487 314.841C204.067 313.279 205.756 311.831 207.54 310.508Z" fill="#374151"/>
<path d="M190.139 274.802C190.069 274.697 197.598 268.949 206.959 261.968C216.319 254.986 223.97 249.394 224.039 249.489C224.108 249.585 216.589 255.342 207.228 262.332C197.867 269.322 190.217 274.897 190.139 274.802Z" fill="#374151"/>
<path d="M200.516 270.415C201.048 269.935 201.631 269.513 202.253 269.156L206.525 266.273L210.771 263.338C211.331 262.891 211.936 262.504 212.577 262.184C212.09 262.708 211.549 263.179 210.962 263.59C209.92 264.415 208.453 265.501 206.786 266.647C205.118 267.793 203.564 268.757 202.444 269.426C201.842 269.829 201.195 270.161 200.516 270.415Z" fill="#374151"/>
<path d="M222.876 202.504C222.876 202.504 222.771 202.634 222.537 202.834C222.302 203.034 221.938 203.355 221.521 203.702L217.744 206.846L205.248 217.179L192.805 227.599L189.028 230.751L187.994 231.619C187.751 231.81 187.621 231.906 187.604 231.889C187.703 231.766 187.813 231.652 187.933 231.55L188.915 230.682C189.835 229.874 191.086 228.771 192.596 227.425C195.731 224.699 200.09 220.974 204.962 216.918C209.833 212.863 214.288 209.26 217.544 206.681L221.417 203.65L222.485 202.851C222.599 202.719 222.73 202.602 222.876 202.504Z" fill="#374151"/>
<path d="M207.992 208.764C206.92 209.896 205.74 210.92 204.467 211.82C203.287 212.835 202.013 213.737 200.664 214.512C201.735 213.382 202.916 212.361 204.189 211.464C205.369 210.447 206.643 209.543 207.992 208.764Z" fill="#374151"/>
<path d="M161.623 266.525C160.573 267.82 159.41 269.02 158.149 270.112C156.974 271.308 155.692 272.394 154.32 273.359C155.389 272.067 156.565 270.867 157.837 269.773C158.998 268.578 160.265 267.491 161.623 266.525Z" fill="#374151"/>
<path d="M260.397 310.221C259.318 311.709 258.125 313.112 256.828 314.415C255.64 315.822 254.336 317.126 252.929 318.314C253.997 316.814 255.191 315.408 256.498 314.111C257.687 312.708 258.991 311.407 260.397 310.221Z" fill="#374151"/>
<path d="M163.038 352.109C161.844 353.654 160.535 355.105 159.122 356.451C157.811 357.892 156.392 359.231 154.875 360.454C156.069 358.91 157.378 357.458 158.792 356.112C160.1 354.669 161.52 353.33 163.038 352.109Z" fill="#374151"/>
<path d="M257.384 390.916C256.367 392.296 255.231 393.583 253.989 394.763C252.857 396.046 251.613 397.226 250.272 398.288C251.292 396.911 252.428 395.624 253.667 394.441C254.802 393.161 256.045 391.981 257.384 390.916Z" fill="#374151"/>
<path d="M257.089 395.908C256.462 396.896 255.709 397.798 254.848 398.591C254.086 399.491 253.211 400.288 252.243 400.962C252.87 399.974 253.623 399.072 254.484 398.279C255.249 397.382 256.124 396.586 257.089 395.908Z" fill="#374151"/>
<path d="M264.313 427.586H247.328V458.126H264.313V427.586Z" fill="#4B5563"/>
<path d="M166.486 427.082H149.501V457.622H166.486V427.082Z" fill="#4B5563"/>
<g opacity="0.3">
<path d="M186.171 466.218L231.359 429.218L231.351 419.875L224.412 420.066L181.317 458.004L181.412 466.201" fill="#F8EDED"/>
</g>
<g opacity="0.3">
<path d="M196.408 466.236L200.576 466.297L231.376 439.474L231.341 437.538L231.35 435.41L196.408 466.236Z" fill="#F8EDED"/>
</g>
<path d="M205.917 466.294C205.795 466.294 205.691 456.743 205.691 444.925C205.691 433.106 205.795 423.555 205.917 423.555C206.038 423.555 206.142 433.106 206.142 444.925C206.142 456.743 206.047 466.294 205.917 466.294Z" fill="#374151"/>
<path d="M203.442 442.348H200.438V452.716H203.442V442.348Z" fill="#E9C8CA"/>
<path d="M211.075 442.348H208.071V452.716H211.075V442.348Z" fill="#E9C8CA"/>
<path d="M333.407 192.368C333.407 192.49 286.378 192.594 228.338 192.594C170.298 192.594 123.268 192.49 123.268 192.368C123.268 192.247 170.289 192.143 228.338 192.143C286.386 192.143 333.407 192.264 333.407 192.368Z" fill="#374151"/>
<path d="M333.407 181.159C333.407 181.281 286.378 181.385 228.338 181.385C170.298 181.385 123.268 181.281 123.268 181.159C123.268 181.038 170.289 180.934 228.338 180.934C286.386 180.934 333.407 181.029 333.407 181.159Z" fill="#374151"/>
<path d="M265.598 155.413C265.598 155.535 247.771 155.639 225.785 155.639C203.798 155.639 186.006 155.535 186.006 155.413C186.006 155.292 203.824 155.188 225.819 155.188C247.814 155.188 265.598 155.283 265.598 155.413Z" fill="#374151"/>
<path d="M134.426 466.2C134.305 466.2 134.079 405.208 133.923 329.983C133.766 254.759 133.749 193.758 133.879 193.758C134.009 193.758 134.227 254.733 134.374 329.983C134.522 405.234 134.548 466.2 134.426 466.2Z" fill="#374151"/>
<path d="M141.85 136.376L107.499 124.854L73.4772 136.22C69.1355 138.13 65.3061 139.294 65.3061 143.063V161.871C65.2749 175.185 69.1713 188.212 76.5077 199.323C84.0795 210.889 94.9785 219.89 107.768 225.138C121.661 220.918 132.082 209.673 138.394 200.052C145.738 188.948 149.638 175.922 149.605 162.609V145.685C149.666 140.301 146.609 137.67 141.85 136.376Z" fill="#CC7E84"/>
<path d="M107.76 217.731L107.621 217.67C96.7087 213.197 87.3718 205.582 80.795 195.792C74.2182 186.003 70.6981 174.48 70.6814 162.687V146.449C70.6814 143.271 73.4861 142.107 76.7598 140.692L77.9755 140.162L107.499 130.289L137.257 140.275C142.007 141.569 144.317 144.339 144.317 148.733V163.329C144.335 174.899 140.947 186.218 134.574 195.875C130.345 202.283 121.254 213.641 107.907 217.696L107.76 217.731ZM107.499 131.201L78.3315 140.961L77.1158 141.491C73.9898 142.767 71.5497 143.844 71.5497 146.449V162.687C71.5687 174.288 75.0283 185.623 81.4908 195.257C87.9534 204.891 97.1284 212.392 107.855 216.811C120.88 212.799 129.746 201.675 133.905 195.389C140.167 185.868 143.489 174.716 143.457 163.321V148.724C143.457 144.721 141.408 142.298 137.031 141.1L107.499 131.201Z" fill="#F8EDED"/>
<path d="M146.34 131.635C147.134 131.807 147.912 132.045 148.667 132.347C149.587 132.698 150.462 133.159 151.272 133.719C152.398 134.48 153.333 135.49 154.007 136.671C154.824 138.176 155.265 139.856 155.292 141.568C155.292 143.435 155.292 145.45 155.292 147.647C155.292 151.989 155.336 156.99 155.292 162.548C155.147 175.81 151.537 188.805 144.82 200.242C140.798 207.113 135.829 213.383 130.058 218.868C123.98 224.547 116.59 229.558 107.942 232.215H107.863H107.794C104.74 230.935 101.76 229.485 98.8674 227.873C95.9064 226.182 93.0554 224.306 90.3316 222.255C84.6949 218 79.6745 212.986 75.4135 207.354C70.8008 201.296 67.1027 194.593 64.4376 187.46C61.8936 180.633 60.3324 173.479 59.8007 166.212C59.5315 162.669 59.6096 159.17 59.5923 155.74C59.5749 152.31 59.5923 148.923 59.5923 145.598V140.631C59.5668 139.807 59.6017 138.983 59.6965 138.164C59.8391 137.332 60.1951 136.551 60.7298 135.898C61.832 134.713 63.1726 133.775 64.6634 133.145C66.0962 132.477 67.5376 131.895 68.9443 131.279L107.447 118.453H107.499L136.05 128.1L143.674 130.705L145.636 131.391C146.079 131.539 146.296 131.635 146.296 131.635C146.296 131.635 146.07 131.574 145.628 131.426L143.648 130.784L135.998 128.265L107.403 118.714H107.499L69.0919 131.643C67.6765 132.268 66.2438 132.85 64.8284 133.519C63.3923 134.107 62.0985 134.995 61.0337 136.124C60.5364 136.73 60.2123 137.459 60.0959 138.234C60.0009 139.029 59.9718 139.831 60.0091 140.631V145.571C60.0091 148.894 60.0091 152.275 60.0091 155.714C60.0091 159.187 59.9483 162.66 60.2175 166.134C60.7376 173.369 62.2903 180.492 64.8284 187.287C67.485 194.374 71.1685 201.033 75.7608 207.05C79.9943 212.648 84.9825 217.634 90.5834 221.864C93.2918 223.903 96.1252 225.771 99.0671 227.456C101.945 229.061 104.908 230.511 107.942 231.798H107.855C116.425 229.193 123.78 224.209 129.815 218.564C135.579 213.115 140.548 206.883 144.577 200.051C148.158 193.957 150.878 187.397 152.661 180.557C154.173 174.667 154.989 168.619 155.093 162.539C155.093 156.999 155.093 152.006 155.145 147.647C155.145 145.467 155.145 143.444 155.145 141.568C155.119 139.891 154.684 138.246 153.877 136.775C153.22 135.609 152.308 134.606 151.211 133.84C150.414 133.277 149.555 132.807 148.649 132.442C148.088 132.205 147.514 131.999 146.93 131.826L146.34 131.635Z" fill="#CC7E84"/>
<path d="M106.37 189.535L86.9709 173.306L92.6325 166.541L105.64 177.422L125.56 156.217L131.994 162.252L106.37 189.535Z" fill="#F8EDED"/>
<path d="M500.388 191.928L506.466 181.508C503.394 172.451 503.82 162.572 507.661 153.813C511.502 145.054 518.481 138.049 527.225 134.174C535.969 130.299 545.846 129.835 554.915 132.872C563.984 135.91 571.589 142.23 576.234 150.59C580.88 158.95 582.231 168.746 580.021 178.051C577.812 187.357 572.201 195.499 564.293 200.878C556.385 206.257 546.751 208.483 537.284 207.12C527.818 205.756 519.204 200.901 513.135 193.509L500.388 191.928Z" fill="#F8EDED"/>
<path d="M500.388 191.927L501.256 192.014L503.714 192.309L513.205 193.464L513.1 193.603L512.779 192.917L513.265 193.499C517.32 198.401 522.53 202.218 528.427 204.605C530.256 205.344 532.14 205.939 534.062 206.385C536.125 206.831 538.217 207.121 540.323 207.253C550.103 207.888 559.749 204.714 567.242 198.396C571.44 194.867 574.833 190.479 577.193 185.527C579.684 180.258 580.921 174.483 580.805 168.656C580.734 162.549 579.165 156.553 576.238 151.193L575.022 149.153C574.596 148.493 574.154 147.867 573.693 147.225C572.809 145.972 571.849 144.774 570.819 143.639C570.333 143.039 569.734 142.544 569.195 141.997C568.657 141.45 568.127 140.903 567.519 140.434L565.739 139.019C565.444 138.785 565.158 138.533 564.871 138.324L563.925 137.708C559.014 134.406 553.411 132.276 547.548 131.482C542.043 130.784 536.453 131.302 531.171 133.001C521.761 136.004 513.885 142.541 509.202 151.237C508.941 151.723 508.698 152.209 508.446 152.687L508.073 153.399L507.778 154.137L506.631 157.054C506.032 158.94 505.545 160.86 505.173 162.803C504.078 169.049 504.562 175.469 506.579 181.481C504.582 184.833 503.054 187.403 502.003 189.148L500.813 191.137L500.397 191.823L500.77 191.154L501.908 189.174L506.414 181.359V181.438C504.352 175.431 503.824 169.005 504.877 162.742C505.249 160.782 505.733 158.846 506.327 156.942L507.474 153.998L507.769 153.251L508.142 152.53L508.898 151.063C512.585 144.219 518.254 138.65 525.162 135.086C532.07 131.522 539.895 130.13 547.608 131.091C553.509 131.882 559.152 134.008 564.107 137.308L565.071 137.934C565.392 138.142 565.679 138.402 565.939 138.637L567.737 140.07C568.353 140.539 568.865 141.129 569.43 141.65C569.994 142.171 570.576 142.701 571.071 143.309C572.124 144.466 573.102 145.69 573.997 146.973C574.449 147.624 574.909 148.258 575.343 148.918L576.507 150.993C579.375 156.304 580.956 162.214 581.12 168.247C581.284 174.281 580.028 180.268 577.453 185.727C575.159 190.546 571.891 194.836 567.856 198.329C563.821 201.822 559.106 204.441 554.008 206.02C549.568 207.373 544.919 207.906 540.288 207.592C538.164 207.446 536.054 207.141 533.975 206.68C532.037 206.228 530.138 205.622 528.296 204.865C522.364 202.437 517.139 198.555 513.1 193.577L513.265 193.473L513.335 193.629H513.161L503.61 192.344L501.187 192.005L500.388 191.927Z" fill="#374151"/>
<path d="M554.103 157.453H526.291V185.266H554.103V157.453Z" fill="#DAA3A7"/>
<path d="M554.104 185.319C554.1 185.27 554.1 185.221 554.104 185.172C554.104 185.067 554.104 184.937 554.104 184.781C554.104 184.416 554.104 183.912 554.104 183.279C554.104 181.933 554.104 180.022 554.051 177.6C554.051 172.72 553.991 165.799 553.956 157.497L554.147 157.697H526.36C526.308 157.749 526.785 157.272 526.586 157.48V164.965C526.586 167.414 526.586 169.819 526.586 172.155C526.586 176.818 526.586 181.229 526.586 185.276L526.395 185.076L546.497 185.18H552.167H553.678H554.069H554.208H553.721H552.254L546.618 185.232L526.395 185.328H526.195V185.319C526.195 181.273 526.195 176.861 526.195 172.198C526.195 169.863 526.195 167.457 526.195 165.009V157.524L526.421 157.289H554.208H554.407V157.48C554.407 165.834 554.329 172.798 554.303 177.712C554.303 180.109 554.303 182.011 554.251 183.339C554.251 183.965 554.251 184.451 554.251 184.807C554.215 184.981 554.166 185.152 554.104 185.319Z" fill="#374151"/>
<path d="M544.63 181.532L527.906 167.543L532.786 161.708L543.996 171.086L561.172 152.816L566.712 158.018L544.63 181.532Z" fill="#4B5563"/>
<path d="M423.662 287.827L403.091 274.081C396.249 272.466 388.564 277.372 387.14 284.258C380.341 282.834 373.125 287.601 370.789 294.139C368.453 300.678 370.494 308.302 375.009 313.59C379.524 318.879 386.176 322.005 392.992 323.359C402.796 325.304 414.258 323.159 420.137 315.066C425.668 307.477 424.8 297.153 423.662 287.827Z" fill="#374151"/>
<path d="M511.842 272.223C511.765 268.738 510.721 265.343 508.825 262.417C506.93 259.491 504.259 257.15 501.109 255.655C503.463 247.44 506.05 238.818 504.235 230.473C500.128 211.613 483.135 209.025 474.59 209.147L446.508 227.086C438.988 235.605 448.427 282.374 451.814 293.219C453.574 298.639 456.673 303.528 460.822 307.435C464.971 311.341 470.038 314.139 475.554 315.571C483.369 317.524 492.383 316.283 498.374 310.847C504.366 305.411 506.267 295.408 501.405 288.947C504.521 287.398 507.147 285.015 508.99 282.062C510.833 279.109 511.82 275.703 511.842 272.223Z" fill="#374151"/>
<path d="M367.628 350.658L370.233 465.792L523.695 466.391C523.695 466.391 512.303 304.775 509.029 303.195C506.554 302.023 476.232 292.071 476.232 292.071L462.746 288.146L407.016 298.844L386.801 303.264L367.628 350.658Z" fill="#4B5563"/>
<path d="M376.52 331.425C376.52 331.121 391.178 302.301 391.178 302.301C376.815 303.812 363.99 308.883 355.654 319.815C351.772 324.904 350.035 332.615 348.099 338.111C346.797 341.836 338.2 391.948 338.2 391.948L372.248 405.877L376.52 331.425Z" fill="#4B5563"/>
<path d="M430.609 373.584L398.48 299.488C386.775 302.093 373.62 305.063 365.231 310.464L369.669 364.927L369.017 466.392L430.496 466.714L434.282 394.511L430.609 373.584Z" fill="#CC7E84"/>
<path d="M512.493 392.462L505.877 300.948L468.59 289.008L430.513 372.959V466.714L524.615 466.401L512.493 392.462Z" fill="#CC7E84"/>
<path d="M512.502 392.461C512.502 392.461 512.589 392.904 512.737 393.764C512.884 394.623 513.102 395.917 513.388 397.585C513.953 400.954 514.777 405.912 515.845 412.294C517.956 425.068 521.012 443.555 524.781 466.375V466.566H524.659L430.557 466.93H430.34V466.713C430.34 443.754 430.34 418.755 430.34 392.817V372.88C444.06 342.662 456.972 314.224 468.443 288.938L468.521 288.781L468.686 288.833L505.929 300.808H506.042V300.929C508.039 328.959 509.663 351.84 510.792 367.714C511.348 375.65 511.782 381.833 512.068 386.036C512.216 388.128 512.32 389.735 512.389 390.82C512.459 391.906 512.485 392.453 512.485 392.453C512.485 392.453 512.424 391.906 512.337 390.829C512.251 389.752 512.129 388.137 511.973 386.044C511.651 381.841 511.191 375.668 510.601 367.74C509.428 351.858 507.753 328.986 505.686 300.955L505.807 301.112L468.521 289.189L468.764 289.085C457.302 314.371 444.45 342.818 430.713 373.045V372.95V392.852C430.713 418.789 430.713 443.789 430.713 466.748L430.496 466.531L524.598 466.27L524.433 466.461C520.726 443.624 517.721 425.137 515.637 412.346C514.612 405.964 513.814 401.006 513.267 397.637C513.006 395.961 512.806 394.676 512.667 393.807C512.528 392.939 512.502 392.461 512.502 392.461Z" fill="#374151"/>
<path d="M502.351 390.057H370.224V407.328H502.351V390.057Z" fill="#F8EDED"/>
<path d="M506.519 302.258C506.519 302.258 515.107 302.154 527.551 324.513C541.522 349.617 550.449 381.477 550.449 381.477L516.054 400.25L506.519 302.258Z" fill="#4B5563"/>
<path d="M377.822 304.82L381.565 466.401L396.275 466.479L391.177 301.025C391.177 301.025 380.132 303.622 377.822 304.82Z" fill="#F8EDED"/>
<path d="M482.067 293.324L477.56 466.48H496.794L497.697 298.534L482.067 293.324Z" fill="#F8EDED"/>
<g opacity="0.3">
<path d="M442.61 339.563C442.973 342.972 444.12 346.251 445.963 349.142C447.805 352.033 450.293 354.458 453.229 356.226C456.034 357.885 459.23 358.927 461.687 361.072C464.144 363.216 465.516 366.013 466.897 368.826C477.317 389.71 487.737 410.645 495.804 432.562C497.602 437.46 499.278 442.461 502.187 446.82C505.096 451.18 509.324 454.887 514.456 455.877C519.588 456.867 525.528 454.505 527.568 449.703L462.677 328.596L442.61 339.563Z" fill="#111827"/>
</g>
<path d="M430.513 372.959C430.513 372.959 430.513 373.532 430.513 374.696C430.513 375.859 430.513 377.492 430.513 379.671C430.513 384.013 430.513 390.447 430.565 398.619C430.565 414.987 430.618 438.423 430.652 466.749V466.94H430.461L368.878 466.61H368.661V466.384C368.774 448.149 368.896 428.498 369.017 408.205C369.113 393.157 369.208 378.473 369.304 364.371C367.776 345.268 366.325 327.189 364.962 310.534V310.36L365.066 310.291C370.52 306.956 376.355 304.907 381.999 303.188C387.643 301.468 393.192 300.227 398.498 299.037H398.645L398.697 299.176L421.925 353.013C424.669 359.413 426.814 364.397 428.264 367.775L429.905 371.631C430.279 372.499 430.453 372.95 430.453 372.95C430.453 372.95 430.244 372.508 429.853 371.639L428.273 367.801L421.839 353.039L398.48 299.263L398.68 299.367C393.392 300.557 387.878 301.851 382.233 303.535C376.589 305.22 370.789 307.304 365.396 310.621L365.492 310.43C366.838 327.093 368.305 345.163 369.834 364.267C369.747 378.378 369.651 393.053 369.556 408.101C369.425 428.42 369.295 448.045 369.182 466.28L368.965 466.063L430.539 466.453L430.348 466.636C430.348 438.311 430.409 414.874 430.435 398.506C430.435 390.343 430.435 383.935 430.487 379.567C430.487 377.396 430.487 375.729 430.487 374.592C430.487 373.454 430.513 372.959 430.513 372.959Z" fill="#374151"/>
<path d="M377.909 205.715C376.891 204.103 376.31 202.253 376.224 200.347C376.137 198.442 376.548 196.547 377.417 194.849C378.285 193.151 379.581 191.708 381.176 190.663C382.771 189.617 384.611 189.005 386.515 188.887L403.881 191.422L398.828 220.764C398.35 223.568 397.777 226.547 395.832 228.622C394.852 229.554 393.694 230.277 392.427 230.749C391.16 231.221 389.81 231.431 388.46 231.366C385.497 231.345 382.607 230.449 380.151 228.791C377.696 227.134 375.785 224.788 374.658 222.048C373.531 219.308 373.238 216.296 373.817 213.39C374.395 210.485 375.819 207.815 377.909 205.715Z" fill="#374151"/>
<path d="M430.513 318.471C445.014 318.471 460.697 303.163 460.983 288.661L462.529 209.191C463.736 185.745 451.101 165.53 427.648 164.975L425.477 165.053C414.944 165.417 404.934 169.733 397.439 177.143C389.944 184.552 385.514 194.512 385.029 205.04C384.1 225.35 384.899 243.699 385.411 254.535C386.471 277.025 407.476 280.586 407.476 280.586C407.476 280.586 405.67 300.384 408.761 306.219C415.708 319.296 421.196 318.176 430.513 318.376V318.471Z" fill="#FFBF9D"/>
<path d="M407.303 280.662C407.303 280.662 421.517 281.009 436.297 270.988C436.297 270.988 429.584 288.025 407.068 286.775L407.303 280.662Z" fill="#FF9A6C"/>
<path d="M395.345 223.075C395.368 223.913 395.716 224.709 396.316 225.294C396.916 225.879 397.72 226.208 398.558 226.21C398.968 226.227 399.377 226.163 399.762 226.02C400.146 225.877 400.499 225.659 400.798 225.378C401.097 225.098 401.337 224.76 401.504 224.385C401.671 224.011 401.762 223.607 401.771 223.196C401.748 222.359 401.4 221.563 400.8 220.977C400.2 220.392 399.396 220.064 398.558 220.062C398.148 220.043 397.738 220.107 397.353 220.249C396.968 220.391 396.615 220.61 396.316 220.89C396.016 221.171 395.776 221.509 395.609 221.884C395.443 222.26 395.353 222.664 395.345 223.075Z" fill="#374151"/>
<path d="M390.604 213.757C391.013 214.156 393.383 212.272 396.839 212.159C400.295 212.046 402.918 213.696 403.256 213.253C403.43 213.062 402.996 212.324 401.867 211.517C400.334 210.534 398.536 210.049 396.718 210.127C394.919 210.182 393.186 210.809 391.768 211.916C390.735 212.802 390.396 213.575 390.604 213.757Z" fill="#374151"/>
<path d="M426.823 223.075C426.843 223.912 427.19 224.708 427.788 225.293C428.387 225.879 429.19 226.207 430.027 226.209C430.437 226.228 430.847 226.164 431.232 226.022C431.617 225.88 431.97 225.662 432.269 225.381C432.569 225.1 432.809 224.762 432.976 224.387C433.143 224.012 433.232 223.607 433.24 223.196C433.222 222.353 432.873 221.551 432.269 220.963C431.664 220.375 430.853 220.048 430.01 220.053C429.601 220.038 429.193 220.104 428.811 220.249C428.428 220.393 428.078 220.613 427.781 220.894C427.485 221.176 427.247 221.513 427.082 221.888C426.918 222.262 426.83 222.666 426.823 223.075Z" fill="#374151"/>
<path d="M424.513 213.974C424.93 214.374 427.3 212.489 430.756 212.377C434.212 212.264 436.835 213.914 437.173 213.471C437.347 213.28 436.922 212.533 435.784 211.734C434.253 210.749 432.454 210.264 430.635 210.345C428.834 210.399 427.097 211.026 425.676 212.133C424.652 213.028 424.313 213.801 424.513 213.974Z" fill="#374151"/>
<path d="M413.034 240.97C413.034 240.779 410.88 240.484 407.381 240.154C406.513 240.093 405.644 239.946 405.488 239.355C405.332 238.765 405.592 237.757 405.983 236.75C406.741 234.585 407.534 232.313 408.362 229.934C411.653 220.243 414.006 212.28 413.616 212.15C413.225 212.02 410.238 219.774 406.947 229.473C406.157 231.861 405.392 234.145 404.68 236.325C404.376 237.332 403.812 238.496 404.342 239.798C404.479 240.105 404.686 240.377 404.944 240.592C405.203 240.807 405.508 240.961 405.835 241.04C406.33 241.158 406.838 241.211 407.346 241.196C410.854 241.231 413.025 241.17 413.034 240.97Z" fill="#374151"/>
<path d="M416.211 253.588C417.014 254.372 418.094 254.809 419.216 254.804C420.401 254.777 421.53 254.288 422.359 253.44C423.853 252.068 424.139 249.845 423.853 247.944C423.809 247.617 423.69 247.305 423.505 247.032C423.497 246.857 423.462 246.684 423.401 246.52C423.202 246.009 422.901 245.545 422.515 245.155C422.13 244.765 421.669 244.458 421.161 244.253C420.116 243.847 418.967 243.792 417.887 244.097C417.001 244.396 416.216 244.938 415.622 245.661C415.028 246.384 414.648 247.259 414.527 248.187C414.368 249.156 414.438 250.149 414.73 251.087C415.023 252.024 415.53 252.881 416.211 253.588Z" fill="#FF9A6C"/>
<path d="M424.426 244.054C423.888 243.897 423.019 247.527 419.277 249.403C415.534 251.278 411.74 249.941 411.592 250.445C411.488 250.662 412.287 251.356 413.928 251.791C416.061 252.322 418.314 252.089 420.293 251.131C422.191 250.204 423.655 248.575 424.374 246.589C424.878 245.096 424.678 244.097 424.426 244.054Z" fill="#374151"/>
<path d="M423.627 202.034C424.001 202.963 427.431 202.399 431.512 202.746C435.593 203.093 438.901 204.092 439.405 203.223C439.639 202.815 439.032 201.947 437.668 201.087C435.863 200.038 433.842 199.415 431.76 199.264C429.677 199.114 427.588 199.44 425.65 200.219C424.183 200.835 423.462 201.6 423.627 202.034Z" fill="#374151"/>
<path d="M391.516 200.948C392.15 201.712 394.503 200.809 397.369 200.678C400.234 200.548 402.674 201.017 403.204 200.175C403.438 199.775 403.03 198.994 401.945 198.29C400.489 197.45 398.817 197.061 397.141 197.17C395.464 197.28 393.857 197.884 392.523 198.907C391.542 199.784 391.238 200.609 391.516 200.948Z" fill="#374151"/>
<path d="M461.713 225.454C462.086 225.28 477.013 220.348 477.057 235.743C477.1 251.139 461.626 248.013 461.6 247.57C461.574 247.127 461.713 225.454 461.713 225.454Z" fill="#FFBF9D"/>
<path d="M466.289 241.761C466.35 241.709 466.558 241.943 467.01 242.152C467.653 242.411 468.372 242.411 469.015 242.152C470.639 241.552 472.003 238.965 472.072 236.186C472.104 234.866 471.843 233.555 471.308 232.348C471.161 231.868 470.9 231.432 470.548 231.075C470.196 230.718 469.762 230.452 469.285 230.299C468.976 230.216 468.649 230.244 468.36 230.379C468.071 230.515 467.839 230.747 467.704 231.037C467.496 231.471 467.6 231.775 467.513 231.801C467.426 231.827 467.183 231.54 467.305 230.933C467.389 230.55 467.604 230.21 467.913 229.969C468.12 229.808 468.358 229.691 468.611 229.622C468.864 229.554 469.129 229.536 469.389 229.569C470.022 229.693 470.613 229.976 471.105 230.393C471.598 230.809 471.975 231.345 472.202 231.948C472.863 233.28 473.185 234.753 473.14 236.238C473.053 239.347 471.473 242.247 469.25 242.898C468.837 243.021 468.401 243.049 467.976 242.979C467.55 242.91 467.146 242.746 466.792 242.499C466.315 242.091 466.237 241.761 466.289 241.761Z" fill="#FF9A6C"/>
<path d="M442.531 188.792C444.354 186.977 447.003 186.317 449.547 186.013C456.228 185.219 462.998 186.317 469.085 189.182C472.254 190.685 475.311 192.769 477.021 195.834C478.732 198.899 478.758 203.093 476.344 205.637C478.627 206.977 480.338 209.108 481.152 211.626C481.966 214.144 481.827 216.874 480.761 219.296C479.694 221.718 477.775 223.664 475.368 224.764C472.961 225.864 470.233 226.041 467.704 225.262C467.588 226.44 467.175 227.57 466.504 228.545C465.832 229.52 464.925 230.31 463.866 230.84C462.808 231.369 461.632 231.622 460.449 231.575C459.266 231.527 458.114 231.181 457.102 230.568C456.045 229.895 455.109 229.05 454.332 228.067C451.388 224.289 451.093 217.126 451.9 212.437C450.355 212.379 448.844 211.972 447.478 211.248C446.113 210.523 444.929 209.498 444.016 208.251C442.209 205.738 441.019 202.835 440.542 199.776C439.778 195.921 439.804 191.518 442.531 188.792Z" fill="#374151"/>
<path d="M448.132 148.032C449.182 148.249 474.434 155.743 479.574 175.272C484.715 194.801 482.449 200.541 482.449 200.541C483.403 201.243 484.254 202.076 484.975 203.016C485.957 204.344 483.994 210.257 480.694 209.354C456.381 196.607 426.857 193.516 393.73 192.344L368.461 190.346C361.332 190.702 358.97 188.653 362.07 187.073C364.45 185.866 385.081 179.136 385.081 179.136L389.223 176.531L400.625 162.742C400.625 162.742 399.47 160.64 402.136 159.138C404.801 157.636 427.404 143.734 448.132 148.032Z" fill="#CC7E84"/>
<g opacity="0.3">
<path d="M470.822 160.849C470.822 160.849 443.486 154.545 430.721 159.668L432.206 159.043L420.171 163.385C418.139 164.123 415.769 164.826 413.928 163.697C413.928 163.697 420.544 158.487 432.363 155.361C444.181 152.235 462.624 151.784 470.822 160.849Z" fill="#111827"/>
</g>
<path d="M471.186 161.004C470.444 160.367 469.654 159.787 468.824 159.267C466.571 157.767 464.149 156.537 461.609 155.603C457.842 154.21 453.893 153.373 449.886 153.12C444.97 152.677 440.016 153.293 435.359 154.926C432.981 155.837 430.661 156.893 428.412 158.087C426.241 159.241 424.07 160.24 422.151 161.404C420.375 162.571 418.505 163.588 416.559 164.443C414.835 165.097 412.984 165.344 411.149 165.164C404.35 164.807 400.278 163.132 400.608 162.715C400.701 162.963 400.883 163.168 401.12 163.288C401.76 163.664 402.446 163.956 403.16 164.156C405.76 164.897 408.433 165.345 411.132 165.493C413.013 165.698 414.916 165.46 416.689 164.799C418.66 163.954 420.555 162.94 422.351 161.768C424.278 160.631 426.432 159.632 428.603 158.486C430.833 157.303 433.132 156.256 435.489 155.351C440.086 153.716 444.98 153.082 449.843 153.493C453.818 153.716 457.74 154.515 461.487 155.864C464.018 156.765 466.441 157.945 468.712 159.38C469.519 159.884 470.127 160.309 470.535 160.605C470.943 160.9 471.186 161.004 471.186 161.004Z" fill="#374151"/>
<g opacity="0.3">
<path d="M481.45 183.407C476.5 183.042 472.827 181.505 467.982 180.107C462.772 178.614 457.683 177.363 452.603 175.626C448.739 174.307 444.154 173.021 441.775 170.043C441.518 170.998 441.511 172.003 441.756 172.962C442.001 173.92 442.489 174.799 443.173 175.514C444.58 177.059 449.347 179.1 451.327 179.786C462.615 183.676 470.43 186.298 482.266 187.913C482.094 186.395 481.821 184.889 481.45 183.407Z" fill="#111827"/>
</g>
<path d="M478.914 173.161C481.962 174.733 483.829 175.766 483.742 178.458C483.673 180.69 483.039 183.381 480.825 183.625C480.141 183.655 479.458 183.557 478.81 183.338L445.075 174.186C443.898 174.003 442.82 173.417 442.027 172.527C441.003 171.025 441.958 168.819 443.53 167.899C445.101 166.979 447.003 167.031 448.835 167.083C459.16 167.578 469.094 169.948 478.914 173.161Z" fill="#CC7E84"/>
<path d="M442.522 173.023C442.091 172.601 441.79 172.065 441.654 171.477C441.518 170.686 441.605 169.873 441.904 169.128C442.203 168.383 442.702 167.735 443.347 167.257C445.084 166.111 447.637 165.868 450.294 166.189C452.951 166.51 456.033 166.901 459.168 167.413C464.529 168.241 469.806 169.543 474.937 171.303C476.9 171.989 478.411 172.649 479.522 173.101L480.755 173.639C480.892 173.713 481.038 173.769 481.189 173.804C481.066 173.71 480.932 173.632 480.79 173.57L479.591 172.953C478.541 172.45 476.986 171.746 475.041 171.017C469.917 169.165 464.624 167.819 459.238 166.996C456.085 166.475 453.081 166.128 450.328 165.798C447.576 165.468 444.927 165.798 443.138 167.014C442.457 167.524 441.937 168.219 441.64 169.017C441.343 169.814 441.281 170.68 441.463 171.512C441.572 171.956 441.783 172.37 442.079 172.719C442.383 172.945 442.513 173.04 442.522 173.023Z" fill="#374151"/>
<path d="M397.047 167.059L418.591 168.04L416.376 173.979L393.018 171.939L397.047 167.059Z" fill="#F8EDED"/>
<path d="M428.325 188.306C428.325 188.185 418.851 186.188 407.111 183.826C395.371 181.464 385.828 179.658 385.802 179.771C385.776 179.884 395.276 181.889 407.024 184.251C418.773 186.613 428.273 188.419 428.325 188.306Z" fill="#374151"/>
<path d="M401.015 299.489L407.094 288.513L430.513 318.471L463.154 278.18L467.93 290.467L442.609 334.761L431.868 320.199L429.315 320.572L420.458 335.968L401.015 299.489Z" fill="#DAA3A7"/>
<path d="M451.657 321.449C451.457 321.839 451.225 322.211 450.963 322.561C450.494 323.264 449.817 324.298 449.009 325.565C446.882 328.931 444.987 332.439 443.339 336.064L443.165 336.437L442.939 336.09L442.271 335.03C439.509 330.871 436.696 327.311 434.803 324.61C433.839 323.282 433.066 322.188 432.597 321.415C432.315 321.028 432.071 320.615 431.868 320.182C432.185 320.536 432.475 320.913 432.736 321.31L435.055 324.428C437.017 327.033 439.874 330.576 442.644 334.77C442.878 335.134 443.113 335.491 443.321 335.829H442.931C444.583 332.187 446.529 328.685 448.748 325.357C449.617 324.089 450.311 323.091 450.824 322.422C451.074 322.075 451.353 321.75 451.657 321.449Z" fill="#374151"/>
<path d="M478.133 208.305C478.372 208.491 478.58 208.714 478.75 208.965C479.258 209.618 479.686 210.329 480.026 211.083C481.208 213.594 481.483 216.437 480.805 219.128C480.128 221.82 478.539 224.193 476.31 225.845C475.652 226.344 474.938 226.764 474.182 227.096C473.91 227.24 473.617 227.34 473.314 227.391C474.284 226.857 475.215 226.257 476.101 225.593C478.199 223.934 479.69 221.629 480.345 219.035C481 216.442 480.781 213.705 479.722 211.248C479.263 210.231 478.732 209.247 478.133 208.305Z" fill="#4B5563"/>
<path d="M429.315 320.572C429.315 320.572 429.315 320.685 429.202 320.884L428.812 321.753C428.456 322.526 427.943 323.646 427.196 325.044C425.228 328.841 423.036 332.517 420.632 336.054L420.458 336.41L420.293 336.106L414.901 326.129C411.115 319.061 407.694 312.661 405.193 307.963C403.986 305.671 403.004 303.787 402.292 302.441L401.528 300.921C401.431 300.749 401.35 300.569 401.285 300.383C401.409 300.536 401.517 300.702 401.606 300.878L402.475 302.354L405.497 307.816L415.248 325.877C417.141 329.42 418.956 332.824 420.606 335.872H420.25C422.665 332.357 424.897 328.72 426.936 324.974L428.673 321.744L429.124 320.876C429.174 320.766 429.238 320.664 429.315 320.572Z" fill="#374151"/>
<path d="M338.955 371.543L326.459 407.353L307.738 385.575L282.834 401.041L314.52 443.424C323.099 455.651 337.253 459.489 344.99 457.639C360.759 453.879 369.156 433.464 369.156 433.464L369.06 413.909L365.7 384.907L338.955 371.543Z" fill="#4B5563"/>
<path d="M339.424 334.76C339.424 334.76 387.539 387.034 397.412 396.612C402.118 401.179 412.069 407.31 412.069 407.31L397.151 409.046L339.424 334.76Z" fill="#DAA3A7"/>
<g opacity="0.3">
<path d="M324.94 412.825C324.94 412.825 344.668 417.418 358.128 418.157C371.587 418.895 406.755 418.669 406.755 418.669L399.808 412.721L324.94 412.825Z" fill="#111827"/>
</g>
<path d="M336.124 328.022L249.863 325.912L324.905 412.851L404.524 415.021L336.124 328.022Z" fill="#374151"/>
<path d="M298.959 360.326C298.964 359.769 298.852 359.217 298.631 358.706C298.41 358.195 298.085 357.735 297.676 357.357C297.267 356.978 296.784 356.69 296.258 356.508C295.731 356.327 295.172 356.258 294.617 356.305C293.35 356.401 291.691 356.557 289.65 356.835C284.388 357.538 268.967 365.753 268.654 368.879C268.194 373.464 270.564 375.148 270.564 375.148C270.564 375.148 267.638 379.299 268.88 382.616C269.939 385.456 274.567 386.289 274.567 386.289C274.567 386.289 271.294 390.37 274.906 393.08C276.165 394.017 278.683 395.815 279.248 396.431C279.499 397.274 279.849 398.085 280.29 398.845C281.103 399.909 282.136 400.784 283.318 401.412C284.501 402.04 285.805 402.406 287.141 402.484L288.009 402.536C289.708 402.635 291.381 402.093 292.698 401.016C298.664 396.128 315.527 382 315.753 378.231C315.753 378.231 318.966 375.548 317.568 372.899C316.17 370.251 311.298 371.588 311.298 371.588C311.958 371.028 312.421 370.271 312.618 369.429C312.815 368.586 312.736 367.702 312.392 366.908C311.159 364.12 302.432 364.659 298.499 365.31C295.355 365.822 286.585 367.55 286.585 367.55C286.585 367.55 298.186 363.139 298.811 361.116C298.892 360.859 298.941 360.594 298.959 360.326Z" fill="#FFBF9D"/>
<path d="M315.788 378.23C315.421 378.513 315.032 378.765 314.624 378.986C313.869 379.446 312.749 380.089 311.342 380.835C308.546 382.346 304.578 384.257 300.106 386.15C295.634 388.043 291.518 389.623 288.522 390.656C287.029 391.186 285.813 391.603 284.962 391.872C284.533 392.043 284.088 392.171 283.633 392.254C284.044 392.042 284.471 391.862 284.91 391.716L288.383 390.361C291.353 389.224 295.443 387.643 299.906 385.75C304.369 383.857 308.338 381.999 311.194 380.54C312.61 379.828 313.747 379.229 314.538 378.804C314.937 378.577 315.355 378.385 315.788 378.23Z" fill="#FF9A6C"/>
<path d="M311.915 371.467C311.499 371.606 311.072 371.71 310.639 371.779C309.823 371.97 308.624 372.231 307.165 372.648C304.248 373.386 300.271 374.636 295.929 376.165C293.758 376.929 291.666 377.615 289.851 378.335C288.036 379.056 286.377 379.786 284.988 380.419C283.599 381.053 282.539 381.618 281.793 382C281.416 382.226 281.021 382.421 280.612 382.582C280.693 382.501 280.783 382.431 280.881 382.373C281.063 382.252 281.341 382.069 281.706 381.852C282.435 381.418 283.503 380.819 284.858 380.115C286.212 379.412 287.845 378.683 289.703 377.936C291.561 377.189 293.645 376.494 295.782 375.722C299.481 374.388 303.249 373.254 307.07 372.326C308.546 371.979 309.753 371.762 310.587 371.623C311.024 371.529 311.469 371.477 311.915 371.467Z" fill="#FF9A6C"/>
<path d="M286.594 367.549C286.02 367.973 285.399 368.331 284.745 368.617C283.564 369.216 281.905 369.972 280.082 370.796C278.258 371.621 276.608 372.42 275.445 373.019C274.832 373.382 274.19 373.693 273.526 373.949C274.053 373.479 274.636 373.076 275.263 372.75C276.754 371.888 278.291 371.106 279.865 370.406C281.697 369.537 283.338 368.86 284.571 368.339C285.218 368.009 285.896 367.745 286.594 367.549Z" fill="#FF9A6C"/>
<path d="M310.491 385.281C310.264 385.62 310.002 385.935 309.709 386.219C309.18 386.81 308.389 387.634 307.382 388.616C305.376 390.604 302.424 393.148 299.255 396.04C298.464 396.761 297.718 397.508 296.936 398.167C296.184 398.802 295.398 399.396 294.583 399.948C293.204 400.89 291.687 401.611 290.085 402.084C289.007 402.407 287.883 402.548 286.759 402.5C286.468 402.49 286.177 402.458 285.891 402.405C285.682 402.37 285.578 402.344 285.578 402.327C285.578 402.283 286.021 402.327 286.802 402.327C287.903 402.314 288.996 402.132 290.041 401.788C291.588 401.279 293.05 400.544 294.383 399.609C295.176 399.069 295.941 398.489 296.676 397.872C297.44 397.221 298.178 396.474 298.977 395.745C302.155 392.844 305.133 390.344 307.191 388.425C308.224 387.469 309.041 386.688 309.605 386.132C309.875 385.823 310.171 385.539 310.491 385.281Z" fill="#FF9A6C"/>
<path d="M311.403 325.017L273.534 324.539C273.351 324.514 273.164 324.548 273.001 324.637C272.838 324.725 272.708 324.864 272.629 325.031C272.551 325.199 272.528 325.388 272.564 325.57C272.6 325.751 272.694 325.917 272.831 326.042L281.08 335.698L318.419 336.826C318.592 336.845 318.767 336.81 318.921 336.728C319.074 336.646 319.2 336.519 319.28 336.364C319.361 336.21 319.393 336.034 319.372 335.861C319.352 335.688 319.28 335.525 319.166 335.394L312.097 325.399C312.02 325.285 311.917 325.191 311.796 325.124C311.676 325.058 311.541 325.021 311.403 325.017Z" fill="#DAA3A7"/>
<path d="M280.889 336.105L272.519 326.31C272.35 326.117 272.241 325.879 272.205 325.625C272.17 325.372 272.208 325.113 272.317 324.881C272.426 324.649 272.599 324.454 272.817 324.319C273.035 324.184 273.287 324.115 273.543 324.121L311.403 324.599C311.612 324.601 311.818 324.652 312.004 324.749C312.189 324.846 312.349 324.985 312.471 325.155L319.539 335.149C319.679 335.348 319.762 335.582 319.778 335.824C319.794 336.067 319.744 336.309 319.632 336.525C319.52 336.741 319.351 336.922 319.143 337.048C318.935 337.175 318.697 337.242 318.454 337.242L280.889 336.105ZM311.429 325.433L273.569 324.955C273.474 324.954 273.381 324.98 273.3 325.031C273.22 325.081 273.156 325.154 273.115 325.24C273.075 325.326 273.06 325.422 273.073 325.516C273.086 325.61 273.125 325.699 273.187 325.771L281.315 335.28L318.497 336.408C318.587 336.41 318.675 336.385 318.75 336.337C318.826 336.289 318.886 336.221 318.923 336.139C318.971 336.063 318.997 335.974 318.997 335.883C318.997 335.792 318.971 335.704 318.923 335.627L311.863 325.641C311.813 325.573 311.748 325.519 311.672 325.483C311.596 325.446 311.513 325.429 311.429 325.433Z" fill="#374151"/>
<path d="M343.366 431.858C343.487 430.225 343.508 428.587 343.427 426.952C343.14 423.001 341.8 419.199 339.546 415.942C337.292 412.685 334.207 410.091 330.61 408.43C329.109 407.77 327.566 407.21 325.991 406.754C326.106 406.741 326.223 406.741 326.338 406.754C326.555 406.798 326.885 406.832 327.302 406.945C328.492 407.225 329.655 407.611 330.775 408.1C334.48 409.71 337.661 412.322 339.962 415.642C342.263 418.962 343.592 422.857 343.8 426.891C343.873 428.102 343.833 429.317 343.679 430.521C343.641 430.848 343.586 431.172 343.514 431.493C343.482 431.621 343.433 431.744 343.366 431.858Z" fill="#374151"/>
<path d="M471.742 362.355C471.742 362.355 490.637 409.15 499.208 426.031C508.091 443.528 521.281 472.843 547.731 457.517C569.361 444.978 549.763 379.131 549.763 379.131L530.294 387.928L501.5 341.854L471.742 362.355Z" fill="#4B5563"/>
<path d="M482.865 287.019C482.756 286.686 482.577 286.38 482.341 286.121C482.104 285.863 481.815 285.658 481.493 285.52C481.171 285.382 480.823 285.314 480.473 285.321C480.123 285.328 479.778 285.409 479.461 285.56C477.456 286.506 474.503 288.773 473.809 293.948C472.723 301.963 474.217 307.624 472.341 309.717C470.465 311.81 446.899 313.486 445.075 316.924C443.252 320.363 444.354 323.237 444.276 324.931C444.245 325.538 443.991 326.113 443.564 326.546C442.496 327.64 440.69 330.106 442.418 333.084C442.636 333.449 442.759 333.863 442.775 334.288C442.792 334.713 442.702 335.135 442.514 335.516C441.819 336.905 441.272 339.31 443.703 341.794C443.935 342.022 444.121 342.293 444.25 342.593C444.962 344.242 447.724 350.104 451.64 351.276C454.586 352.072 457.639 352.403 460.688 352.257C461.305 352.238 461.907 352.452 462.373 352.856C464.361 354.593 470.96 358.805 472.914 361.358C472.914 361.358 497.228 344.355 498.765 343.556C498.765 343.556 487.806 326.832 487.25 319.165C486.669 310.985 481.519 301.459 482.909 293.792C483.508 290.466 483.3 288.347 482.865 287.019Z" fill="#FFBF9D"/>
<path d="M471.742 362.355C471.742 362.355 471.742 362.312 471.872 362.243L472.281 361.93L473.904 360.775L480.026 356.485L501.379 341.68L501.552 341.559L501.674 341.741C504.809 346.56 508.204 351.857 511.703 357.371L532.196 390.247C534.801 394.423 536.955 397.81 538.448 400.172L540.185 402.881L540.619 403.584C540.672 403.663 540.716 403.747 540.749 403.836C540.69 403.764 540.635 403.689 540.584 403.61L540.115 402.924C539.69 402.299 539.099 401.405 538.379 400.267C536.859 397.957 534.671 394.597 532.005 390.42C526.656 382.084 519.458 370.448 511.399 357.649C507.926 352.1 504.513 346.795 501.396 341.967L501.691 342.028L480.252 356.702L474.061 360.888L472.402 361.991L471.968 362.269L471.742 362.355Z" fill="#374151"/>
<path d="M552.689 412.485C552.505 412.243 552.347 411.981 552.22 411.704C551.899 411.096 551.517 410.375 551.074 409.524C549.868 407.11 548.413 404.828 546.732 402.716C545.022 400.632 542.852 398.97 540.393 397.862C539.354 397.459 538.286 397.134 537.198 396.89C537.502 396.855 537.81 396.869 538.11 396.933C538.933 397.054 539.739 397.267 540.515 397.567C543.07 398.614 545.324 400.283 547.071 402.421C548.799 404.549 550.257 406.882 551.413 409.368C551.864 410.306 552.203 411.105 552.429 411.617C552.556 411.893 552.643 412.185 552.689 412.485Z" fill="#374151"/>
</g>
<defs>
<clipPath id="clip0_2408_74098">
<rect width="640" height="466.472" rx="24" fill="white"/>
</clipPath>
</defs>
</svg>
