<svg width="900" height="547" viewBox="0 0 900 547" fill="none" xmlns="http://www.w3.org/2000/svg">
<path fill-rule="evenodd" clip-rule="evenodd" d="M378.947 189.474V38.8327C378.947 20.9915 360.172 9.38766 344.214 17.3665L13.2669 182.84C5.13606 186.906 0 195.216 0 204.306V733.895C0 747.149 10.7452 757.895 24 757.895H354.947C368.202 757.895 378.947 747.149 378.947 733.895V533.21C378.947 519.956 389.693 509.21 402.947 509.21H497.053C510.307 509.21 521.053 519.956 521.053 533.21V733.895C521.053 747.149 531.798 757.895 545.053 757.895H876C889.255 757.895 900 747.149 900 733.895V346.412C900 337.321 894.864 329.011 886.733 324.945L555.786 159.472C539.828 151.493 521.053 163.097 521.053 180.938V331.579V390.474C521.053 403.728 510.307 414.474 497.053 414.474H402.947C389.693 414.474 378.947 403.728 378.947 390.474V189.474Z" fill="#F3F4F6"/>
</svg>
