<svg width="598" height="454" viewBox="0 0 598 454" fill="none" xmlns="http://www.w3.org/2000/svg">
<path d="M127 101L204.942 141V221L127 261L49.0577 221V141L127 101Z" fill="#F9FAFB" stroke="#E5E7EB"/>
<path d="M517 221L594.942 261V341L517 381L439.058 341V261L517 221Z" stroke="#E5E7EB"/>
<path d="M282 340L359.942 380V460L282 500L204.058 460V380L282 340Z" stroke="#E5E7EB"/>
<path d="M205 -19L282.942 21V101L205 141L127.058 101V21L205 -19Z" fill="#F9FAFB" stroke="#E5E7EB"/>
<path d="M-29 339L48.9423 379V459L-29 499L-106.942 459V379L-29 339Z" fill="#F9FAFB" stroke="#E5E7EB"/>
<path d="M49 221L126.942 261V341L49 381L-28.9423 341V261L49 221Z" fill="#F9FAFB" stroke="#E5E7EB"/>
<path d="M361 -19L438.942 21V101L361 141L283.058 101V21L361 -19Z" fill="#F9FAFB" stroke="#E5E7EB"/>
<path d="M439 101L516.942 141V221L439 261L361.058 221V141L439 101Z" fill="#F9FAFB" stroke="#E5E7EB"/>
<path d="M49 -19L126.942 21V101L49 141L-28.9423 101V21L49 -19Z" fill="#F9FAFB" stroke="#E5E7EB"/>
<path d="M439 340L516.942 380V460L439 500L361.058 460V380L439 340Z" fill="#F9FAFB" stroke="#438ADB"/>
<path d="M673 221L750.942 261V341L673 381L595.058 341V261L673 221Z" fill="#F9FAFB" stroke="#E5E7EB"/>
<path d="M517 -19L594.942 21V101L517 141L439.058 101V21L517 -19Z" fill="#F9FAFB" stroke="#E5E7EB"/>
<path d="M673 -19L750.942 21V101L673 141L595.058 101V21L673 -19Z" fill="#F9FAFB" stroke="#E5E7EB"/>
<path d="M283 101L360.942 141V221L283 261L205.058 221V141L283 101Z" fill="#F9FAFB" stroke="#438ADB"/>
<path d="M205 221L282.942 261V341L205 381L127.058 341V261L205 221Z" fill="#F9FAFB" stroke="#438ADB"/>
<path d="M361 221L438.942 261V341L361 381L283.058 341V261L361 221Z" fill="#F9FAFB" stroke="#438ADB"/>
<path d="M127 340L204.942 380V460L127 500L49.0577 460V380L127 340Z" fill="#F9FAFB" stroke="#438ADB"/>
</svg>
