<svg width="64" height="64" viewBox="0 0 64 64" fill="none" xmlns="http://www.w3.org/2000/svg">
<path d="M24.3836 55.4186V47.2403C24.3836 45.1679 26.0688 43.4842 28.1562 43.4712H35.8206C37.9173 43.4712 39.617 45.1587 39.617 47.2403V55.3949C39.617 57.1924 41.0777 58.6532 42.8882 58.6663H48.1172C50.5594 58.6726 52.9037 57.7138 54.6328 56.0016C56.3619 54.2893 57.3337 51.9644 57.3337 49.5397V26.3086C57.3336 24.35 56.4592 22.4922 54.946 21.2357L37.1816 7.13106C34.0764 4.664 29.6413 4.7437 26.628 7.3207L9.24569 21.2357C7.66097 22.4552 6.7138 24.3185 6.66699 26.3086V49.516C6.66699 54.5696 10.7933 58.6663 15.8835 58.6663H20.9931C21.8648 58.6726 22.703 58.3332 23.3216 57.7235C23.9402 57.1137 24.2881 56.2841 24.2881 55.4186H24.3836Z" fill="#438ADB"/>
</svg>
