<svg width="95" height="24" viewBox="0 0 95 24" fill="none" xmlns="http://www.w3.org/2000/svg">
<path fill-rule="evenodd" clip-rule="evenodd" d="M12 5.99991V3.23598C12 1.74922 10.4354 0.782223 9.10557 1.44712L1.10557 5.44712C0.428005 5.78591 0 6.47844 0 7.23598V21.9999C0 23.1045 0.895431 23.9999 2 23.9999H10C11.1046 23.9999 12 23.1045 12 21.9999V18.1249C12 17.0203 12.8954 16.1249 14 16.1249H14.5C15.6046 16.1249 16.5 17.0203 16.5 18.1249V21.9999C16.5 23.1045 17.3954 23.9999 18.5 23.9999H26.5C27.6046 23.9999 28.5 23.1045 28.5 21.9999V11.736C28.5 10.9784 28.072 10.2859 27.3944 9.94712L19.3944 5.94712C18.0646 5.28222 16.5 6.24922 16.5 7.73598V10.4999V11.1249C16.5 12.2295 15.6046 13.1249 14.5 13.1249H14C12.8954 13.1249 12 12.2295 12 11.1249V5.99991Z" fill="#2E7DD7"/>
<path d="M35.706 22V9.76H38.136V14.728H43.554V9.76H45.966V22H43.554V16.708H38.136V22H35.706ZM56.9294 22L55.9934 19.462H50.7734L49.8374 22H47.4074L52.0154 9.76H54.8774L59.4854 22H56.9294ZM53.0234 13.396L51.4754 17.59H55.2914L53.7434 13.396L53.3834 12.136L53.0234 13.396ZM60.7744 9.76L63.9424 18.364L64.3204 19.714L64.6804 18.364L67.8484 9.76H70.2784L65.6704 22H62.8264L58.2004 9.76H60.7744ZM71.706 22V9.76H80.31V11.686H74.136V14.746H79.626V16.654H74.136V20.074H80.31V22H71.706ZM82.2529 22V9.76H84.8089L89.3449 17.032L90.1909 18.706L90.1009 9.76H92.5129V22H89.9749L85.4389 14.746L84.5749 13.036L84.6829 22H82.2529Z" fill="#374151"/>
</svg>
