<svg width="756" height="621" viewBox="0 0 756 621" fill="none" xmlns="http://www.w3.org/2000/svg">
<g id="No Results">
<g id="circle">
<path id="Stroke 1" d="M26.4932 285.504V291.905" stroke="#D2D8DF" stroke-width="2.921" stroke-linecap="round"/>
<g id="Group 8">
<path id="Stroke 2" d="M12.1172 288.967L17.3475 294.351" stroke="#D2D8DF" stroke-width="2.921" stroke-linecap="round"/>
<path id="Stroke 4" d="M6 303.299H13.3957" stroke="#D2D8DF" stroke-width="2.921" stroke-linecap="round"/>
<path id="Stroke 6" d="M11.5166 317.888L16.747 312.504" stroke="#D2D8DF" stroke-width="2.921" stroke-linecap="round"/>
</g>
<path id="Stroke 9" d="M26.4932 319.637V313.236" stroke="#D2D8DF" stroke-width="2.921" stroke-linecap="round"/>
<path id="Stroke 10" d="M37.1617 315.371L32.8945 311.104" stroke="#D2D8DF" stroke-width="2.921" stroke-linecap="round"/>
<path id="Stroke 11" d="M45.6967 304.705H39.2959" stroke="#D2D8DF" stroke-width="2.921" stroke-linecap="round"/>
<path id="Stroke 12" d="M41.4303 289.77L37.1631 294.037" stroke="#D2D8DF" stroke-width="2.921" stroke-linecap="round"/>
<path id="Stroke 13" d="M370.002 6V10.2672" stroke="#D2D8DF" stroke-width="2.921" stroke-linecap="round"/>
<path id="Stroke 15" d="M357.202 18.8027H361.469" stroke="#D2D8DF" stroke-width="2.921" stroke-linecap="round"/>
<path id="Stroke 16" d="M370.002 31.6012V27.334" stroke="#D2D8DF" stroke-width="2.921" stroke-linecap="round"/>
<path id="Stroke 17" d="M380.671 18.8027H376.403" stroke="#D2D8DF" stroke-width="2.921" stroke-linecap="round"/>
<path id="Stroke 18" d="M122.505 185.221V191.621" stroke="#D2D8DF" stroke-width="2.921" stroke-linecap="round"/>
<path id="Stroke 19" d="M103.304 204.422H109.705" stroke="#D2D8DF" stroke-width="2.921" stroke-linecap="round"/>
<path id="Stroke 20" d="M122.505 221.493V215.092" stroke="#D2D8DF" stroke-width="2.921" stroke-linecap="round"/>
<path id="Stroke 21" d="M139.576 204.422H133.175" stroke="#D2D8DF" stroke-width="2.921" stroke-linecap="round"/>
<g id="Group 42">
<path id="Stroke 22" d="M581.774 417.867C586.873 417.867 591.008 422.004 591.008 427.104C591.008 432.206 586.873 436.34 581.774 436.34C576.675 436.34 572.54 432.206 572.54 427.104" stroke="#D2D8DF" stroke-width="2.921" stroke-linecap="round"/>
<path id="Fill 26" fill-rule="evenodd" clip-rule="evenodd" d="M624.032 334.07C629.515 332.36 637.92 325.654 639.865 318.439C641.629 324.817 649.025 332.36 655.698 332.93C648.186 335.59 641.004 343.491 639.865 349.699C639.09 343.372 629.156 334.992 624.032 334.07Z" fill="#EBECEE"/>
<path id="Fill 28" fill-rule="evenodd" clip-rule="evenodd" d="M61.2129 415.017C63.9553 414.162 68.1557 410.81 69.1284 407.203C70.0105 410.39 73.7075 414.162 77.044 414.449C73.2891 415.777 69.699 419.728 69.1284 422.832C68.7408 419.668 63.7741 415.478 61.2129 415.017Z" fill="#EBECEE"/>
<path id="Fill 30" fill-rule="evenodd" clip-rule="evenodd" d="M112.105 118.221C112.105 122.178 108.899 125.383 104.944 125.383C100.988 125.383 97.7842 122.178 97.7842 118.221C97.7842 114.265 100.988 111.059 104.944 111.059C108.899 111.059 112.105 114.265 112.105 118.221Z" fill="#D1D8DF"/>
<path id="Fill 32" fill-rule="evenodd" clip-rule="evenodd" d="M590.234 137.449C590.234 144.06 584.874 149.42 578.266 149.42C571.655 149.42 566.297 144.06 566.297 137.449C566.297 130.838 571.655 125.479 578.266 125.479C584.874 125.479 590.234 130.838 590.234 137.449Z" fill="#EBECEE"/>
<path id="Fill 34" fill-rule="evenodd" clip-rule="evenodd" d="M756.003 105.015C756.003 110.26 751.754 114.511 746.512 114.511C741.268 114.511 737.019 110.26 737.019 105.015C737.019 99.77 741.268 95.5195 746.512 95.5195C751.754 95.5195 756.003 99.77 756.003 105.015Z" fill="#EBECEE"/>
<path id="Stroke 36" fill-rule="evenodd" clip-rule="evenodd" d="M245.924 548.5C245.924 551.806 243.245 554.486 239.939 554.486C236.635 554.486 233.956 551.806 233.956 548.5C233.956 545.193 236.635 542.514 239.939 542.514C243.245 542.514 245.924 545.193 245.924 548.5Z" stroke="#D2D8DF" stroke-width="2.921" stroke-linecap="round"/>
<path id="Stroke 38" fill-rule="evenodd" clip-rule="evenodd" d="M242.361 72.207C242.361 76.164 239.155 79.3691 235.201 79.3691C231.247 79.3691 228.041 76.164 228.041 72.207C228.041 68.2518 231.247 65.0449 235.201 65.0449C239.155 65.0449 242.361 68.2518 242.361 72.207Z" stroke="#D2D8DF" stroke-width="2.921" stroke-linecap="round"/>
<path id="Stroke 40" fill-rule="evenodd" clip-rule="evenodd" d="M425.005 614.793C420.429 616.534 415.309 614.235 413.568 609.66C411.827 605.084 414.124 599.96 418.701 598.221C423.275 596.48 428.396 598.777 430.136 603.354C431.879 607.93 429.58 613.052 425.005 614.793Z" stroke="#D2D8DF" stroke-width="2.921" stroke-linecap="round"/>
</g>
</g>
<g id="search">
<g id="documents">
<path id="Fill 1" fill-rule="evenodd" clip-rule="evenodd" d="M422.275 445.52H247.31C234.995 445.52 224.915 435.41 224.915 423.054V173.545C224.915 161.189 234.995 151.084 247.31 151.084H422.275C434.595 151.084 444.676 161.189 444.676 173.545V423.054C444.676 435.41 434.595 445.52 422.275 445.52Z" fill="#E0E2EE"/>
<path id="Fill 3" fill-rule="evenodd" clip-rule="evenodd" d="M407.34 456.19H232.375C220.06 456.19 209.979 446.08 209.979 433.724V184.215C209.979 171.859 220.06 161.754 232.375 161.754H407.34C419.66 161.754 429.74 171.859 429.74 184.215V433.724C429.74 446.08 419.66 456.19 407.34 456.19Z" fill="#E8EBF2"/>
<path id="Fill 5" fill-rule="evenodd" clip-rule="evenodd" d="M392.812 464.61H217.486C205.145 464.61 195.044 454.542 195.044 442.236V193.761C195.044 181.456 205.145 171.393 217.486 171.393H392.812C405.157 171.393 415.259 181.456 415.259 193.761V442.236C415.259 454.542 405.157 464.61 392.812 464.61Z" fill="#D8DBEA"/>
<path id="Fill 8" fill-rule="evenodd" clip-rule="evenodd" d="M392.812 464.61H217.486C205.145 464.61 195.044 454.542 195.044 442.236V193.761C195.044 181.456 205.145 171.393 217.486 171.393H392.812C405.157 171.393 415.259 181.456 415.259 193.761V442.236C415.259 454.542 405.157 464.61 392.812 464.61Z" fill="#F1F2F7"/>
<path id="Fill 11" fill-rule="evenodd" clip-rule="evenodd" d="M367.542 247.095H238.042C234.344 247.095 231.316 244.215 231.316 240.696C231.316 237.173 234.344 234.293 238.042 234.293H367.542C371.24 234.293 374.267 237.173 374.267 240.696C374.267 244.215 371.24 247.095 367.542 247.095Z" fill="#E0E2EE"/>
<path id="Fill 13" fill-rule="evenodd" clip-rule="evenodd" d="M367.542 285.503H238.042C234.344 285.503 231.316 282.623 231.316 279.104C231.316 275.581 234.344 272.701 238.042 272.701H367.542C371.24 272.701 374.267 275.581 374.267 279.104C374.267 282.623 371.24 285.503 367.542 285.503Z" fill="#E0E2EE"/>
<path id="Fill 15" fill-rule="evenodd" clip-rule="evenodd" d="M367.542 323.905H238.042C234.344 323.905 231.316 321.025 231.316 317.507C231.316 313.988 234.344 311.104 238.042 311.104H367.542C371.24 311.104 374.267 313.988 374.267 317.507C374.267 321.025 371.24 323.905 367.542 323.905Z" fill="#E0E2EE"/>
<path id="Fill 17" fill-rule="evenodd" clip-rule="evenodd" d="M367.542 362.313H238.042C234.344 362.313 231.316 359.433 231.316 355.915C231.316 352.392 234.344 349.512 238.042 349.512H367.542C371.24 349.512 374.267 352.392 374.267 355.915C374.267 359.433 371.24 362.313 367.542 362.313Z" fill="#E0E2EE"/>
<path id="Fill 19" fill-rule="evenodd" clip-rule="evenodd" d="M305.639 400.716H238.071C234.357 400.716 231.316 397.836 231.316 394.317C231.316 390.794 234.357 387.914 238.071 387.914H305.639C309.353 387.914 312.393 390.794 312.393 394.317C312.393 397.836 309.353 400.716 305.639 400.716Z" fill="#E0E2EE"/>
</g>
<g id="search_2">
<path id="Fill 21" fill-rule="evenodd" clip-rule="evenodd" d="M442.018 351.083C416.124 376.974 376.035 379.894 346.931 359.905C343.212 357.305 339.672 354.384 336.37 351.083C334.671 349.389 333.069 347.641 331.559 345.801C328.541 342.125 325.896 338.206 323.73 334.156C319.913 327.315 317.317 320.057 315.9 312.554C311.328 289.025 318.164 263.7 336.37 245.502C354.62 227.25 379.95 220.458 403.483 224.986C410.982 226.446 418.247 229.041 425.088 232.815C429.144 235.03 433.01 237.673 436.692 240.692C438.527 242.196 440.275 243.803 441.97 245.502C445.276 248.803 448.241 252.337 450.793 256.061C470.791 285.155 467.864 325.242 442.018 351.083Z" fill="white" fill-opacity="0.1"/>
<path id="Fill 23" fill-rule="evenodd" clip-rule="evenodd" d="M434.773 345.984C407.833 372.929 364.174 372.924 337.229 345.984C310.319 319.074 310.319 275.41 337.264 248.47C364.174 221.56 407.833 221.56 434.743 248.47C461.683 275.41 461.683 319.074 434.773 345.984ZM448.599 234.628C414.019 200.048 357.983 200.048 323.403 234.628C288.828 269.203 288.798 325.274 323.373 359.854C354.845 391.316 404.173 394.153 438.869 368.321C442.257 365.795 445.521 362.962 448.634 359.854C451.742 356.741 454.574 353.477 457.096 350.089C482.928 315.388 480.066 266.095 448.599 234.628Z" fill="#E0E2EE"/>
<path id="Fill 25" fill-rule="evenodd" clip-rule="evenodd" d="M584.685 490.204L583.234 491.656C573.629 501.265 557.901 501.265 548.292 491.656L459.609 402.974L496.003 366.58L584.685 455.263C594.295 464.872 594.295 480.595 584.685 490.204Z" fill="#2E7DD7"/>
<path id="Fill 27" fill-rule="evenodd" clip-rule="evenodd" d="M459.008 347.373L485.214 373.579L466.609 392.179L440.408 365.973C443.866 363.394 447.191 360.504 450.373 357.333C453.544 354.161 456.435 350.831 459.008 347.373Z" fill="#E0E2EE"/>
<path id="Fill 29" fill-rule="evenodd" clip-rule="evenodd" d="M583.36 454.171L547.199 490.328L540.688 483.813L576.845 447.656L583.36 454.171Z" fill="#438ADB"/>
<path id="Fill 31" fill-rule="evenodd" clip-rule="evenodd" d="M498.016 367.828L460.864 404.981L455.344 399.461L492.496 362.309L498.016 367.828Z" fill="#2161AA"/>
<path id="Fill 33" fill-rule="evenodd" clip-rule="evenodd" d="M416.939 239.198L325.827 330.306C322.396 324.156 320.063 317.631 318.794 310.885L397.518 232.16C404.259 233.478 410.789 235.806 416.939 239.198Z" fill="white" fill-opacity="0.5"/>
<path id="Fill 35" fill-rule="evenodd" clip-rule="evenodd" d="M446.81 260.854L348.308 353.776C344.781 351.453 341.423 348.84 338.292 345.886C336.68 344.365 335.156 342.806 333.729 341.159L433.431 247.096C435.177 248.446 436.835 249.884 438.442 251.405C441.573 254.359 444.39 257.521 446.81 260.854Z" fill="white" fill-opacity="0.5"/>
</g>
</g>
</g>
</svg>
