<svg width="1440" height="564" viewBox="0 0 1440 564" fill="none" xmlns="http://www.w3.org/2000/svg">
<path d="M1437.19 562.395H1324.62L1324.13 358.266H1436.72L1437.19 562.395Z" fill="#2161AA"/>
<path d="M1436.72 358.266H1380.42V562.395H1436.72V358.266Z" fill="#6DA4E3"/>
<path d="M1376.74 323.386H1336.99V358.265H1376.74V323.386Z" fill="#2161AA"/>
<path d="M1376.74 323.386H1367.26V358.265H1376.74V323.386Z" fill="#6DA4E3"/>
<path d="M1440 356.229H1320.76V358.266H1440V356.229Z" fill="#6DA4E3"/>
<path d="M1355.9 373.486H1346.36V393.509H1355.9V373.486Z" fill="#438ADB"/>
<path d="M1380.45 401.355C1380.45 401.57 1367.84 401.741 1352.3 401.741C1336.76 401.741 1324.15 401.57 1324.15 401.355C1324.15 401.141 1336.76 400.969 1352.3 400.969C1367.84 400.969 1380.45 401.184 1380.45 401.355Z" fill="#6DA4E3"/>
<path d="M1412.65 373.486H1403.13V393.509H1412.65V373.486Z" fill="#17457A"/>
<path d="M1437.19 401.355C1437.19 401.57 1424.61 401.741 1409.06 401.741C1393.52 401.741 1380.92 401.57 1380.92 401.355C1380.92 401.141 1393.5 400.969 1409.06 400.969C1424.63 400.969 1437.19 401.184 1437.19 401.355Z" fill="#2161AA"/>
<path d="M1412.65 413.232H1403.13V433.255H1412.65V413.232Z" fill="#17457A"/>
<path d="M1437.19 441.101C1437.19 441.294 1424.61 441.465 1409.06 441.465C1393.52 441.465 1380.92 441.294 1380.92 441.101C1380.92 440.908 1393.5 440.715 1409.06 440.715C1424.63 440.715 1437.19 440.887 1437.19 441.101Z" fill="#2161AA"/>
<path d="M1412.65 454.156H1403.13V474.179H1412.65V454.156Z" fill="#17457A"/>
<path d="M1437.19 482.026C1437.19 482.24 1424.61 482.412 1409.06 482.412C1393.52 482.412 1380.92 482.24 1380.92 482.026C1380.92 481.811 1393.5 481.64 1409.06 481.64C1424.63 481.64 1437.19 481.811 1437.19 482.026Z" fill="#2161AA"/>
<path d="M1412.65 495.101H1403.13V515.124H1412.65V495.101Z" fill="#17457A"/>
<path d="M1437.19 522.971C1437.19 523.164 1424.61 523.336 1409.06 523.336C1393.52 523.336 1380.92 523.164 1380.92 522.971C1380.92 522.778 1393.5 522.585 1409.06 522.585C1424.63 522.585 1437.19 522.757 1437.19 522.971Z" fill="#2161AA"/>
<path d="M1355.9 413.832H1346.36V433.855H1355.9V413.832Z" fill="#438ADB"/>
<path d="M1380.45 441.701C1380.45 441.915 1367.84 442.087 1352.3 442.087C1336.76 442.087 1324.15 441.915 1324.15 441.701C1324.15 441.486 1336.76 441.315 1352.3 441.315C1367.84 441.315 1380.45 441.486 1380.45 441.701Z" fill="#6DA4E3"/>
<path d="M1355.9 454.176H1346.36V474.199H1355.9V454.176Z" fill="#438ADB"/>
<path d="M1380.45 482.046C1380.45 482.261 1367.84 482.432 1352.3 482.432C1336.76 482.432 1324.15 482.261 1324.15 482.046C1324.15 481.832 1336.76 481.66 1352.3 481.66C1367.84 481.66 1380.45 481.832 1380.45 482.046Z" fill="#6DA4E3"/>
<path d="M1355.9 494.524H1346.36V514.547H1355.9V494.524Z" fill="#438ADB"/>
<path d="M1380.45 522.393C1380.45 522.586 1367.84 522.757 1352.3 522.757C1336.76 522.757 1324.15 522.586 1324.15 522.393C1324.15 522.2 1336.76 522.007 1352.3 522.007C1367.84 522.007 1380.45 522.178 1380.45 522.393Z" fill="#6DA4E3"/>
<path d="M428.423 38.9524H303.206V562.009H428.423V38.9524Z" fill="#17457A"/>
<path d="M428.423 38.9524H365.803V560.723H428.423V38.9524Z" fill="#2161AA"/>
<path d="M361.73 0H317.504V38.9521H361.73V0Z" fill="#17457A"/>
<path d="M361.73 0H351.183V38.9521H361.73V0Z" fill="#2161AA"/>
<path d="M292.766 38.9521V36.6797H432.089V38.9521" fill="#6DA4E3"/>
<path d="M338.514 55.9521H327.923V78.3116H338.514V55.9521Z" fill="#438ADB"/>
<path d="M365.804 87.0796C365.804 87.3155 351.805 87.5084 334.505 87.5084C317.205 87.5084 303.206 87.3155 303.206 87.0796C303.206 86.8438 317.226 86.6509 334.505 86.6509C351.784 86.6509 365.804 86.8438 365.804 87.0796Z" fill="#6DA4E3"/>
<path d="M401.669 55.9521H391.079V78.3116H401.669V55.9521Z" fill="#6DA4E3"/>
<path d="M428.98 87.0796C428.98 87.3155 414.96 87.5084 397.66 87.5084C380.36 87.5084 366.361 87.3155 366.361 87.0796C366.361 86.8438 380.381 86.6509 397.66 86.6509C414.938 86.6509 428.98 86.8438 428.98 87.0796Z" fill="#6DA4E3"/>
<path d="M401.669 100.328H391.079V122.688H401.669V100.328Z" fill="#6DA4E3"/>
<path d="M428.98 131.455C428.98 131.691 414.96 131.884 397.66 131.884C380.36 131.884 366.361 131.691 366.361 131.455C366.361 131.22 380.381 131.027 397.66 131.027C414.938 131.027 428.98 131.22 428.98 131.455Z" fill="#6DA4E3"/>
<path d="M401.669 146.033H391.079V168.392H401.669V146.033Z" fill="#6DA4E3"/>
<path d="M428.98 177.161C428.98 177.397 414.96 177.59 397.66 177.59C380.36 177.59 366.361 177.397 366.361 177.161C366.361 176.925 380.381 176.732 397.66 176.732C414.938 176.732 428.98 176.925 428.98 177.161Z" fill="#6DA4E3"/>
<path d="M401.669 191.759H391.079V214.119H401.669V191.759Z" fill="#6DA4E3"/>
<path d="M428.98 222.866C428.98 223.102 414.96 223.295 397.66 223.295C380.36 223.295 366.361 223.102 366.361 222.866C366.361 222.63 380.381 222.437 397.66 222.437C414.938 222.437 428.98 222.63 428.98 222.866Z" fill="#6DA4E3"/>
<path d="M401.669 236.156H391.079V258.516H401.669V236.156Z" fill="#6DA4E3"/>
<path d="M428.98 267.284C428.98 267.52 414.96 267.713 397.66 267.713C380.36 267.713 366.361 267.52 366.361 267.284C366.361 267.048 380.381 266.855 397.66 266.855C414.938 266.855 428.98 267.048 428.98 267.284Z" fill="#6DA4E3"/>
<path d="M401.669 280.748H391.079V303.107H401.669V280.748Z" fill="#6DA4E3"/>
<path d="M401.669 325.916H391.079V348.276H401.669V325.916Z" fill="#6DA4E3"/>
<path d="M428.98 311.853C428.98 312.089 414.96 312.282 397.66 312.282C380.36 312.282 366.361 312.089 366.361 311.853C366.361 311.617 380.381 311.446 397.66 311.446C414.938 311.446 428.98 311.617 428.98 311.853Z" fill="#6DA4E3"/>
<path d="M338.514 100.993H327.923V123.352H338.514V100.993Z" fill="#438ADB"/>
<path d="M365.804 132.12C365.804 132.356 351.805 132.549 334.505 132.549C317.205 132.549 303.206 132.356 303.206 132.12C303.206 131.885 317.226 131.692 334.505 131.692C351.784 131.692 365.804 131.885 365.804 132.12Z" fill="#6DA4E3"/>
<path d="M338.514 146.055H327.923V168.414H338.514V146.055Z" fill="#438ADB"/>
<path d="M365.804 177.182C365.804 177.418 351.805 177.61 334.505 177.61C317.205 177.61 303.206 177.418 303.206 177.182C303.206 176.946 317.226 176.753 334.505 176.753C351.784 176.753 365.804 176.946 365.804 177.182Z" fill="#6DA4E3"/>
<path d="M338.514 191.094H327.923V213.454H338.514V191.094Z" fill="#438ADB"/>
<path d="M365.804 222.223C365.804 222.459 351.805 222.652 334.505 222.652C317.205 222.652 303.206 222.459 303.206 222.223C303.206 221.987 317.226 221.794 334.505 221.794C351.784 221.794 365.804 221.987 365.804 222.223Z" fill="#6DA4E3"/>
<path d="M338.514 236.156H327.923V258.516H338.514V236.156Z" fill="#438ADB"/>
<path d="M365.804 267.284C365.804 267.52 351.805 267.713 334.505 267.713C317.205 267.713 303.206 267.52 303.206 267.284C303.206 267.048 317.226 266.855 334.505 266.855C351.784 266.855 365.804 267.048 365.804 267.284Z" fill="#6DA4E3"/>
<path d="M338.514 281.198H327.923V303.557H338.514V281.198Z" fill="#438ADB"/>
<path d="M365.804 312.325C365.804 312.561 351.805 312.754 334.505 312.754C317.205 312.754 303.206 312.561 303.206 312.325C303.206 312.09 317.226 311.897 334.505 311.897C351.784 311.897 365.804 312.09 365.804 312.325Z" fill="#6DA4E3"/>
<path d="M338.514 326.258H327.923V348.618H338.514V326.258Z" fill="#438ADB"/>
<path d="M191.687 166.249H66.4702V563.102H191.687V166.249Z" fill="#17457A"/>
<path d="M191.709 166.249H129.089V562.009H191.709V166.249Z" fill="#2161AA"/>
<path d="M124.995 127.297H80.769V166.249H124.995V127.297Z" fill="#17457A"/>
<path d="M124.995 127.297H114.447V166.249H124.995V127.297Z" fill="#2161AA"/>
<path d="M67 167V165H193V167" fill="#2161AA"/>
<path d="M101.778 183.25H91.1875V205.609H101.778V183.25Z" fill="#438ADB"/>
<path d="M129.089 214.376C129.089 214.612 115.069 214.805 97.7906 214.805C80.5119 214.805 66.4702 214.612 66.4702 214.376C66.4702 214.14 80.4904 213.948 97.7906 213.948C115.091 213.948 129.089 214.14 129.089 214.376Z" fill="#6DA4E3"/>
<path d="M164.933 183.25H154.343V205.609H164.933V183.25Z" fill="#6DA4E3"/>
<path d="M192.245 214.376C192.245 214.612 178.225 214.805 160.946 214.805C143.667 214.805 129.625 214.612 129.625 214.376C129.625 214.14 143.646 213.948 160.946 213.948C178.246 213.948 192.245 214.14 192.245 214.376Z" fill="#6DA4E3"/>
<path d="M164.933 227.625H154.343V249.984H164.933V227.625Z" fill="#6DA4E3"/>
<path d="M192.245 258.752C192.245 258.988 178.225 259.18 160.946 259.18C143.667 259.18 129.625 258.988 129.625 258.752C129.625 258.516 143.646 258.323 160.946 258.323C178.246 258.323 192.245 258.516 192.245 258.752Z" fill="#6DA4E3"/>
<path d="M164.933 273.329H154.343V295.689H164.933V273.329Z" fill="#6DA4E3"/>
<path d="M192.245 304.457C192.245 304.693 178.225 304.886 160.946 304.886C143.667 304.886 129.625 304.693 129.625 304.457C129.625 304.221 143.646 304.028 160.946 304.028C178.246 304.028 192.245 304.221 192.245 304.457Z" fill="#6DA4E3"/>
<path d="M164.933 319.056H154.343V341.416H164.933V319.056Z" fill="#6DA4E3"/>
<path d="M192.245 350.163C192.245 350.398 178.225 350.591 160.946 350.591C143.667 350.591 129.625 350.398 129.625 350.163C129.625 349.927 143.646 349.734 160.946 349.734C178.246 349.734 192.245 349.927 192.245 350.163Z" fill="#6DA4E3"/>
<path d="M164.933 363.453H154.343V385.812H164.933V363.453Z" fill="#6DA4E3"/>
<path d="M192.245 394.58C192.245 394.816 178.225 395.009 160.946 395.009C143.667 395.009 129.625 394.816 129.625 394.58C129.625 394.344 143.646 394.151 160.946 394.151C178.246 394.151 192.245 394.344 192.245 394.58Z" fill="#6DA4E3"/>
<path d="M164.933 408.043H154.343V430.403H164.933V408.043Z" fill="#6DA4E3"/>
<path d="M164.933 453.213H154.343V475.572H164.933V453.213Z" fill="#6DA4E3"/>
<path d="M192.245 439.15C192.245 439.385 178.225 439.578 160.946 439.578C143.667 439.578 129.625 439.385 129.625 439.15C129.625 438.914 143.646 438.742 160.946 438.742C178.246 438.742 192.245 438.935 192.245 439.15Z" fill="#6DA4E3"/>
<path d="M101.778 228.289H91.1875V250.648H101.778V228.289Z" fill="#438ADB"/>
<path d="M129.089 259.416C129.089 259.652 115.069 259.845 97.7906 259.845C80.5119 259.845 66.4702 259.652 66.4702 259.416C66.4702 259.18 80.4904 258.987 97.7906 258.987C115.091 258.987 129.089 259.18 129.089 259.416Z" fill="#6DA4E3"/>
<path d="M101.778 273.352H91.1875V295.711H101.778V273.352Z" fill="#438ADB"/>
<path d="M129.089 304.479C129.089 304.714 115.069 304.907 97.7906 304.907C80.5119 304.907 66.4702 304.714 66.4702 304.479C66.4702 304.243 80.4904 304.05 97.7906 304.05C115.091 304.05 129.089 304.243 129.089 304.479Z" fill="#6DA4E3"/>
<path d="M101.778 318.413H91.1875V340.772H101.778V318.413Z" fill="#438ADB"/>
<path d="M129.089 349.519C129.089 349.755 115.069 349.948 97.7906 349.948C80.5119 349.948 66.4702 349.755 66.4702 349.519C66.4702 349.283 80.4904 349.09 97.7906 349.09C115.091 349.09 129.089 349.283 129.089 349.519Z" fill="#6DA4E3"/>
<path d="M101.778 363.453H91.1875V385.812H101.778V363.453Z" fill="#438ADB"/>
<path d="M129.089 394.58C129.089 394.816 115.069 395.009 97.7906 395.009C80.5119 395.009 66.4702 394.816 66.4702 394.58C66.4702 394.344 80.4904 394.151 97.7906 394.151C115.091 394.151 129.089 394.344 129.089 394.58Z" fill="#6DA4E3"/>
<path d="M101.778 408.516H91.1875V430.875H101.778V408.516Z" fill="#438ADB"/>
<path d="M129.089 439.621C129.089 439.857 115.069 440.05 97.7906 440.05C80.5119 440.05 66.4702 439.857 66.4702 439.621C66.4702 439.385 80.4904 439.192 97.7906 439.192C115.091 439.192 129.089 439.385 129.089 439.621Z" fill="#6DA4E3"/>
<path d="M101.778 453.556H91.1875V475.916H101.778V453.556Z" fill="#438ADB"/>
<path d="M1201.53 48.4495H1106.15V350.741H1201.53V48.4495Z" fill="#17457A"/>
<path d="M1201.55 48.4495H1153.85V349.927H1201.55V48.4495Z" fill="#2161AA"/>
<path d="M1150.72 18.7583H1117.04V48.428H1150.72V18.7583Z" fill="#17457A"/>
<path d="M1150.72 18.7583H1142.7V48.428H1150.72V18.7583Z" fill="#2161AA"/>
<path d="M1098.2 48.4491V46.7126H1204.34V48.4491" fill="#6DA4E3"/>
<path d="M1133.06 61.3762H1124.97V78.3977H1133.06V61.3762Z" fill="#438ADB"/>
<path d="M1153.85 85.0862C1153.85 85.2792 1143.13 85.4078 1130.01 85.4078C1116.89 85.4078 1106.15 85.2792 1106.15 85.0862C1106.15 84.8933 1116.87 84.7646 1130.01 84.7646C1143.15 84.7646 1153.85 84.9147 1153.85 85.0862Z" fill="#6DA4E3"/>
<path d="M1181.18 61.3762H1173.1V78.3977H1181.18V61.3762Z" fill="#6DA4E3"/>
<path d="M1201.96 85.0862C1201.96 85.2792 1191.24 85.4078 1178.12 85.4078C1165 85.4078 1154.26 85.2792 1154.26 85.0862C1154.26 84.8933 1164.98 84.7646 1178.12 84.7646C1191.26 84.7646 1201.96 84.9147 1201.96 85.0862Z" fill="#6DA4E3"/>
<path d="M1181.18 95.1831H1173.1V112.205H1181.18V95.1831Z" fill="#6DA4E3"/>
<path d="M1201.96 118.893C1201.96 119.065 1191.24 119.215 1178.12 119.215C1165 119.215 1154.26 119.065 1154.26 118.893C1154.26 118.722 1164.98 118.572 1178.12 118.572C1191.26 118.572 1201.96 118.722 1201.96 118.893Z" fill="#6DA4E3"/>
<path d="M1181.18 129.998H1173.1V147.02H1181.18V129.998Z" fill="#6DA4E3"/>
<path d="M1201.96 153.708C1201.96 153.901 1191.24 154.03 1178.12 154.03C1165 154.03 1154.26 153.901 1154.26 153.708C1154.26 153.515 1164.98 153.386 1178.12 153.386C1191.26 153.386 1201.96 153.537 1201.96 153.708Z" fill="#6DA4E3"/>
<path d="M1181.18 164.834H1173.1V181.855H1181.18V164.834Z" fill="#6DA4E3"/>
<path d="M1201.96 188.544C1201.96 188.715 1191.24 188.865 1178.12 188.865C1165 188.865 1154.26 188.715 1154.26 188.544C1154.26 188.372 1164.98 188.201 1178.12 188.201C1191.26 188.201 1201.96 188.351 1201.96 188.544Z" fill="#6DA4E3"/>
<path d="M1181.18 198.662H1173.1V215.684H1181.18V198.662Z" fill="#6DA4E3"/>
<path d="M1201.96 222.351C1201.96 222.544 1191.24 222.694 1178.12 222.694C1165 222.694 1154.26 222.544 1154.26 222.351C1154.26 222.158 1164.98 222.03 1178.12 222.03C1191.26 222.03 1201.96 222.18 1201.96 222.351Z" fill="#6DA4E3"/>
<path d="M1181.18 232.62H1173.1V249.642H1181.18V232.62Z" fill="#6DA4E3"/>
<path d="M1181.18 267.027H1173.1V284.049H1181.18V267.027Z" fill="#6DA4E3"/>
<path d="M1201.96 256.33C1201.96 256.501 1191.24 256.651 1178.12 256.651C1165 256.651 1154.26 256.501 1154.26 256.33C1154.26 256.158 1164.98 255.987 1178.12 255.987C1191.26 255.987 1201.96 256.137 1201.96 256.33Z" fill="#6DA4E3"/>
<path d="M1133.06 95.6975H1124.97V112.719H1133.06V95.6975Z" fill="#438ADB"/>
<path d="M1153.85 119.408C1153.85 119.579 1143.13 119.73 1130.01 119.73C1116.89 119.73 1106.15 119.579 1106.15 119.408C1106.15 119.236 1116.87 119.086 1130.01 119.086C1143.15 119.086 1153.85 119.236 1153.85 119.408Z" fill="#6DA4E3"/>
<path d="M1133.06 130.019H1124.97V147.04H1133.06V130.019Z" fill="#438ADB"/>
<path d="M1153.85 153.73C1153.85 153.901 1143.13 154.051 1130.01 154.051C1116.89 154.051 1106.15 153.901 1106.15 153.73C1106.15 153.558 1116.87 153.408 1130.01 153.408C1143.15 153.408 1153.85 153.558 1153.85 153.73Z" fill="#6DA4E3"/>
<path d="M1133.06 164.341H1124.97V181.363H1133.06V164.341Z" fill="#438ADB"/>
<path d="M1153.85 188.051C1153.85 188.223 1143.13 188.373 1130.01 188.373C1116.89 188.373 1106.15 188.223 1106.15 188.051C1106.15 187.88 1116.87 187.729 1130.01 187.729C1143.15 187.729 1153.85 187.858 1153.85 188.051Z" fill="#6DA4E3"/>
<path d="M1133.06 198.662H1124.97V215.684H1133.06V198.662Z" fill="#438ADB"/>
<path d="M1153.85 222.351C1153.85 222.544 1143.13 222.694 1130.01 222.694C1116.89 222.694 1106.15 222.544 1106.15 222.351C1106.15 222.158 1116.87 222.03 1130.01 222.03C1143.15 222.03 1153.85 222.18 1153.85 222.351Z" fill="#6DA4E3"/>
<path d="M1133.06 232.963H1124.97V249.985H1133.06V232.963Z" fill="#438ADB"/>
<path d="M1153.85 256.672C1153.85 256.865 1143.13 256.993 1130.01 256.993C1116.89 256.993 1106.15 256.865 1106.15 256.672C1106.15 256.479 1116.87 256.35 1130.01 256.35C1143.15 256.35 1153.85 256.5 1153.85 256.672Z" fill="#6DA4E3"/>
<path d="M1133.06 267.284H1124.97V284.305H1133.06V267.284Z" fill="#438ADB"/>
<path d="M1311.72 193.453H1195.29V562.416H1311.72V193.453Z" fill="#17457A"/>
<path d="M1311.72 193.453H1253.51V561.387H1311.72V193.453Z" fill="#2161AA"/>
<path d="M1249.7 157.224H1208.58V193.453H1249.7V157.224Z" fill="#17457A"/>
<path d="M1249.7 157.224H1239.9V193.453H1249.7V157.224Z" fill="#2161AA"/>
<path d="M1185.6 193.453V191.331H1315.13V193.453" fill="#6DA4E3"/>
<path d="M1228.13 209.253H1218.27V230.026H1228.13V209.253Z" fill="#438ADB"/>
<path d="M1253.51 238.258C1253.51 238.473 1240.48 238.644 1224.4 238.644C1208.32 238.644 1195.29 238.473 1195.29 238.258C1195.29 238.044 1208.32 237.851 1224.4 237.851C1240.48 237.851 1253.51 237.958 1253.51 238.258Z" fill="#6DA4E3"/>
<path d="M1286.85 209.253H1276.99V230.026H1286.85V209.253Z" fill="#6DA4E3"/>
<path d="M1312.23 238.258C1312.23 238.473 1299.2 238.644 1283.12 238.644C1267.04 238.644 1253.96 238.408 1253.96 238.258C1253.96 238.108 1267 237.851 1283.08 237.851C1299.15 237.851 1312.23 237.958 1312.23 238.258Z" fill="#6DA4E3"/>
<path d="M1286.85 250.499H1276.99V271.272H1286.85V250.499Z" fill="#6DA4E3"/>
<path d="M1312.23 279.439C1312.23 279.653 1299.2 279.825 1283.12 279.825C1267.04 279.825 1254.01 279.653 1254.01 279.439C1254.01 279.224 1267.04 279.031 1283.12 279.031C1299.2 279.031 1312.23 279.224 1312.23 279.439Z" fill="#6DA4E3"/>
<path d="M1286.85 293.01H1276.99V313.783H1286.85V293.01Z" fill="#6DA4E3"/>
<path d="M1312.23 321.865C1312.23 322.101 1299.2 322.272 1283.12 322.272C1267.04 322.272 1253.96 322.165 1253.96 321.865C1253.96 321.565 1267 321.479 1283.08 321.479C1299.15 321.479 1312.23 321.715 1312.23 321.865Z" fill="#6DA4E3"/>
<path d="M1286.85 335.5H1276.99V356.273H1286.85V335.5Z" fill="#6DA4E3"/>
<path d="M1312.23 364.44C1312.23 364.654 1299.2 364.826 1283.12 364.826C1267.04 364.826 1253.96 364.74 1253.96 364.44C1253.96 364.14 1267 364.032 1283.08 364.032C1299.15 364.032 1312.23 364.225 1312.23 364.44Z" fill="#6DA4E3"/>
<path d="M1286.85 376.788H1276.99V397.561H1286.85V376.788Z" fill="#6DA4E3"/>
<path d="M1312.23 405.728C1312.23 405.943 1299.2 406.114 1283.12 406.114C1267.04 406.114 1254.01 405.943 1254.01 405.728C1254.01 405.514 1267.04 405.321 1283.12 405.321C1299.2 405.321 1312.23 405.471 1312.23 405.728Z" fill="#6DA4E3"/>
<path d="M1286.85 418.226H1276.99V438.999H1286.85V418.226Z" fill="#6DA4E3"/>
<path d="M1286.85 460.223H1276.99V480.996H1286.85V460.223Z" fill="#6DA4E3"/>
<path d="M1312.23 447.168C1312.23 447.382 1299.2 447.575 1283.12 447.575C1267.04 447.575 1254.01 447.382 1254.01 447.168C1254.01 446.953 1267.04 446.782 1283.12 446.782C1299.2 446.782 1312.23 446.953 1312.23 447.168Z" fill="#6DA4E3"/>
<path d="M1228.13 251.142H1218.27V271.915H1228.13V251.142Z" fill="#438ADB"/>
<path d="M1253.51 280.061C1253.51 280.297 1240.48 280.468 1224.4 280.468C1208.32 280.468 1195.29 280.297 1195.29 280.061C1195.29 279.825 1208.32 279.675 1224.4 279.675C1240.48 279.675 1253.51 279.847 1253.51 280.061Z" fill="#6DA4E3"/>
<path d="M1228.13 293.01H1218.27V313.783H1228.13V293.01Z" fill="#438ADB"/>
<path d="M1253.51 321.865C1253.51 322.079 1240.48 322.272 1224.4 322.272C1208.32 322.272 1195.29 322.079 1195.29 321.865C1195.29 321.65 1208.32 321.479 1224.4 321.479C1240.48 321.479 1253.51 321.736 1253.51 321.865Z" fill="#6DA4E3"/>
<path d="M1228.13 334.899H1218.27V355.672H1228.13V334.899Z" fill="#438ADB"/>
<path d="M1253.51 363.839C1253.51 364.053 1240.48 364.225 1224.4 364.225C1208.32 364.225 1195.29 364.053 1195.29 363.839C1195.29 363.625 1208.32 363.432 1224.4 363.432C1240.48 363.432 1253.51 363.625 1253.51 363.839Z" fill="#6DA4E3"/>
<path d="M1228.13 376.788H1218.27V397.561H1228.13V376.788Z" fill="#438ADB"/>
<path d="M1253.51 405.728C1253.51 405.943 1240.48 406.114 1224.4 406.114C1208.32 406.114 1195.29 405.943 1195.29 405.728C1195.29 405.514 1208.32 405.321 1224.4 405.321C1240.48 405.321 1253.51 405.471 1253.51 405.728Z" fill="#6DA4E3"/>
<path d="M1228.13 418.677H1218.27V439.45H1228.13V418.677Z" fill="#438ADB"/>
<path d="M1253.51 447.596C1253.51 447.832 1240.48 448.004 1224.4 448.004C1208.32 448.004 1195.29 447.832 1195.29 447.596C1195.29 447.36 1208.32 447.21 1224.4 447.21C1240.48 447.21 1253.51 447.382 1253.51 447.596Z" fill="#6DA4E3"/>
<path d="M1228.13 460.543H1218.27V481.317H1228.13V460.543Z" fill="#438ADB"/>
<path d="M1198.12 298.819H998.278V562.395H1198.12V298.819Z" fill="#2161AA"/>
<path d="M1198.12 298.819H1104.42V562.395H1198.12V298.819Z" fill="#6DA4E3"/>
<path d="M1058.15 334.491H1040.19V378.138H1058.15V334.491Z" fill="#17457A"/>
<path d="M1058.15 505.349H1040.19V548.996H1058.15V505.349Z" fill="#17457A"/>
<path d="M1104.42 395.289C1104.42 395.782 1080.66 396.168 1051.36 396.168C1022.05 396.168 998.278 395.782 998.278 395.289C998.278 394.796 1022.03 394.41 1051.36 394.41C1080.68 394.41 1104.42 394.753 1104.42 395.289Z" fill="#17457A"/>
<path d="M1058.15 420.585H1040.19V464.232H1058.15V420.585Z" fill="#17457A"/>
<path d="M1104.42 481.36C1104.42 481.853 1080.66 482.26 1051.36 482.26C1022.05 482.26 998.278 481.853 998.278 481.36C998.278 480.867 1022.03 480.481 1051.36 480.481C1080.68 480.481 1104.42 480.867 1104.42 481.36Z" fill="#17457A"/>
<path d="M1142.27 334.491H1124.31V378.138H1142.27V334.491Z" fill="#17457A"/>
<path d="M1181.27 334.491H1163.3V378.138H1181.27V334.491Z" fill="#17457A"/>
<path d="M1142.27 417.347H1124.31V460.994H1142.27V417.347Z" fill="#17457A"/>
<path d="M1181.27 417.347H1163.3V460.994H1181.27V417.347Z" fill="#17457A"/>
<path d="M1142.27 500.182H1124.31V543.829H1142.27V500.182Z" fill="#17457A"/>
<path d="M1181.27 500.182H1163.3V543.829H1181.27V500.182Z" fill="#17457A"/>
<path d="M1213.13 289.643H983.25V299.14H1213.13V289.643Z" fill="#6DA4E3"/>
<path d="M1199.51 300.041C1199.51 300.534 1154.86 300.92 1099.76 300.92C1044.67 300.92 1000.01 300.534 1000.01 300.041C1000.01 299.548 1044.67 299.162 1099.76 299.162C1154.86 299.162 1199.51 299.548 1199.51 300.041Z" fill="#2161AA"/>
<path d="M397.081 561.495H212.803L212.01 270.286H396.266L397.081 561.495Z" fill="#2161AA"/>
<path d="M396.266 270.286H304.127V561.516H396.266V270.286Z" fill="#6DA4E3"/>
<path d="M298.103 212.939H233.04V270.264H298.103V212.939Z" fill="#2161AA"/>
<path d="M298.103 212.939H282.604V270.264H298.103V212.939Z" fill="#6DA4E3"/>
<path d="M401.648 266.942H196.64V270.286H401.648V266.942Z" fill="#6DA4E3"/>
<path d="M263.975 295.282H248.368V328.168H263.975V295.282Z" fill="#438ADB"/>
<path d="M304.127 341.158C304.127 341.501 283.504 341.801 258.079 341.801C232.654 341.801 212.096 341.416 212.096 341.158C212.096 340.901 232.697 340.537 258.165 340.537C283.633 340.537 304.127 340.73 304.127 341.158Z" fill="#6DA4E3"/>
<path d="M356.907 295.282H341.3V328.168H356.907V295.282Z" fill="#17457A"/>
<path d="M397.081 341.158C397.081 341.501 376.436 341.801 351.011 341.801C325.586 341.801 304.942 341.501 304.942 341.158C304.942 340.815 325.565 340.537 351.011 340.537C376.458 340.537 397.081 340.73 397.081 341.158Z" fill="#2161AA"/>
<path d="M356.907 360.581H341.3V393.466H356.907V360.581Z" fill="#17457A"/>
<path d="M397.081 406.371C397.081 406.714 376.436 407.015 351.011 407.015C325.586 407.015 304.942 406.714 304.942 406.371C304.942 406.028 325.565 405.75 351.011 405.75C376.458 405.75 397.081 406.028 397.081 406.371Z" fill="#2161AA"/>
<path d="M356.907 427.851H341.3V460.737H356.907V427.851Z" fill="#17457A"/>
<path d="M397.081 473.643C397.081 473.986 376.436 474.265 351.011 474.265C325.586 474.265 304.942 473.986 304.942 473.643C304.942 473.3 325.565 473.021 351.011 473.021C376.458 473.021 397.081 473.3 397.081 473.643Z" fill="#2161AA"/>
<path d="M356.907 495.123H341.3V528.008H356.907V495.123Z" fill="#17457A"/>
<path d="M397.081 540.913C397.081 541.256 376.436 541.535 351.011 541.535C325.586 541.535 304.942 541.256 304.942 540.913C304.942 540.57 325.565 540.292 351.011 540.292C376.458 540.292 397.081 540.527 397.081 540.913Z" fill="#2161AA"/>
<path d="M263.975 361.568H248.368V394.453H263.975V361.568Z" fill="#438ADB"/>
<path d="M304.127 407.38C304.127 407.723 283.504 408.001 258.079 408.001C232.654 408.001 212.01 407.723 212.01 407.38C212.01 407.037 232.611 406.737 258.079 406.737C283.547 406.737 304.127 407.037 304.127 407.38Z" fill="#6DA4E3"/>
<path d="M263.975 427.874H248.368V460.759H263.975V427.874Z" fill="#438ADB"/>
<path d="M304.127 473.664C304.127 474.007 283.504 474.286 258.079 474.286C232.654 474.286 212.096 474.071 212.096 473.664C212.096 473.257 232.697 473.042 258.165 473.042C283.633 473.042 304.127 473.321 304.127 473.664Z" fill="#6DA4E3"/>
<path d="M263.975 494.158H248.368V527.044H263.975V494.158Z" fill="#438ADB"/>
<path d="M304.127 539.971C304.127 540.314 283.504 540.593 258.079 540.593C232.654 540.593 212.096 540.314 212.096 539.971C212.096 539.628 232.697 539.328 258.165 539.328C283.633 539.328 304.127 539.607 304.127 539.971Z" fill="#6DA4E3"/>
<path d="M581.359 413.146H426.986L426.3 170.107H580.694L581.359 413.146Z" fill="#2161AA"/>
<path d="M580.694 170.107H503.497V413.146H580.694V170.107Z" fill="#6DA4E3"/>
<path d="M498.459 122.259H443.943V170.108H498.459V122.259Z" fill="#2161AA"/>
<path d="M498.459 122.259H485.468V170.108H498.459V122.259Z" fill="#6DA4E3"/>
<path d="M585.217 167.321H413.438V170.108H585.217V167.321Z" fill="#6DA4E3"/>
<path d="M469.862 190.966H456.785V218.406H469.862V190.966Z" fill="#438ADB"/>
<path d="M503.498 229.189C503.498 229.489 486.219 229.725 464.91 229.725C443.601 229.725 426.322 229.489 426.322 229.189C426.322 228.889 443.601 228.675 464.91 228.675C486.219 228.675 503.498 228.911 503.498 229.189Z" fill="#6DA4E3"/>
<path d="M547.723 190.966H534.646V218.406H547.723V190.966Z" fill="#17457A"/>
<path d="M581.38 229.189C581.38 229.489 564.08 229.725 542.793 229.725C521.505 229.725 504.205 229.489 504.205 229.189C504.205 228.889 521.484 228.675 542.793 228.675C564.102 228.675 581.38 228.911 581.38 229.189Z" fill="#2161AA"/>
<path d="M547.723 245.461H534.646V272.902H547.723V245.461Z" fill="#17457A"/>
<path d="M581.38 283.685C581.38 283.985 564.08 284.221 542.793 284.221C521.505 284.221 504.205 283.985 504.205 283.685C504.205 283.385 521.484 283.17 542.793 283.17C564.102 283.17 581.38 283.406 581.38 283.685Z" fill="#2161AA"/>
<path d="M547.723 301.606H534.646V329.046H547.723V301.606Z" fill="#17457A"/>
<path d="M581.38 339.829C581.38 340.108 564.08 340.343 542.793 340.343C521.505 340.343 504.205 340.108 504.205 339.829C504.205 339.55 521.484 339.314 542.793 339.314C564.102 339.314 581.38 339.529 581.38 339.829Z" fill="#2161AA"/>
<path d="M547.723 357.751H534.646V385.191H547.723V357.751Z" fill="#17457A"/>
<path d="M581.38 395.974C581.38 396.253 564.08 396.489 542.793 396.489C521.505 396.489 504.205 396.253 504.205 395.974C504.205 395.695 521.484 395.438 542.793 395.438C564.102 395.438 581.38 395.674 581.38 395.974Z" fill="#2161AA"/>
<path d="M469.862 246.297H456.785V273.737H469.862V246.297Z" fill="#438ADB"/>
<path d="M503.498 284.521C503.498 284.821 486.219 285.057 464.91 285.057C443.601 285.057 426.322 284.821 426.322 284.521C426.322 284.221 443.601 284.006 464.91 284.006C486.219 284.006 503.498 284.242 503.498 284.521Z" fill="#6DA4E3"/>
<path d="M469.862 301.628H456.785V329.068H469.862V301.628Z" fill="#438ADB"/>
<path d="M503.498 339.85C503.498 340.129 486.219 340.365 464.91 340.365C443.601 340.365 426.322 340.129 426.322 339.85C426.322 339.572 443.601 339.314 464.91 339.314C486.219 339.314 503.498 339.55 503.498 339.85Z" fill="#6DA4E3"/>
<path d="M469.862 356.958H456.785V384.398H469.862V356.958Z" fill="#438ADB"/>
<path d="M503.498 395.181C503.498 395.46 486.219 395.695 464.91 395.695C443.601 395.695 426.322 395.46 426.322 395.181C426.322 394.902 443.601 394.645 464.91 394.645C486.219 394.645 503.498 394.881 503.498 395.181Z" fill="#6DA4E3"/>
<path d="M1039.59 522.006H885.194L884.529 144.726H1038.92L1039.59 522.006Z" fill="#2161AA"/>
<path d="M1038.92 144.726H961.727V521.985H1038.92V144.726Z" fill="#6DA4E3"/>
<path d="M956.667 96.8767H902.151V144.725H956.667V96.8767Z" fill="#2161AA"/>
<path d="M956.667 96.8767H943.676V144.725H956.667V96.8767Z" fill="#6DA4E3"/>
<path d="M1043.45 141.938H879.921V144.725H1043.45V141.938Z" fill="#6DA4E3"/>
<path d="M928.091 165.606H915.014V193.046H928.091V165.606Z" fill="#438ADB"/>
<path d="M961.726 203.829C961.726 204.108 944.447 204.343 923.138 204.343C901.829 204.343 884.55 204.108 884.55 203.829C884.55 203.55 901.829 203.293 923.138 203.293C944.447 203.293 961.726 203.529 961.726 203.829Z" fill="#6DA4E3"/>
<path d="M1005.95 165.606H992.875V193.046H1005.95V165.606Z" fill="#17457A"/>
<path d="M1039.59 203.829C1039.59 204.108 1022.31 204.343 1001 204.343C979.691 204.343 962.412 204.108 962.412 203.829C962.412 203.55 979.691 203.293 1001 203.293C1022.31 203.293 1039.59 203.529 1039.59 203.829Z" fill="#2161AA"/>
<path d="M1005.95 220.1H992.875V247.54H1005.95V220.1Z" fill="#17457A"/>
<path d="M1039.59 258.323C1039.59 258.602 1022.31 258.838 1001 258.838C979.691 258.838 962.412 258.602 962.412 258.323C962.412 258.045 979.691 257.787 1001 257.787C1022.31 257.787 1039.59 258.023 1039.59 258.323Z" fill="#2161AA"/>
<path d="M1005.95 276.224H992.875V303.664H1005.95V276.224Z" fill="#17457A"/>
<path d="M1039.59 314.447C1039.59 314.747 1022.31 314.983 1001 314.983C979.691 314.983 962.412 314.747 962.412 314.447C962.412 314.147 979.691 313.933 1001 313.933C1022.31 313.933 1039.59 314.168 1039.59 314.447Z" fill="#2161AA"/>
<path d="M1005.95 332.368H992.875V359.808H1005.95V332.368Z" fill="#17457A"/>
<path d="M1039.59 370.592C1039.59 370.892 1022.31 371.128 1001 371.128C979.691 371.128 962.412 370.892 962.412 370.592C962.412 370.292 979.691 370.078 1001 370.078C1022.31 370.078 1039.59 370.313 1039.59 370.592Z" fill="#2161AA"/>
<path d="M928.091 220.937H915.014V248.377H928.091V220.937Z" fill="#438ADB"/>
<path d="M961.726 259.139C961.726 259.439 944.447 259.675 923.138 259.675C901.829 259.675 884.55 259.439 884.55 259.139C884.55 258.839 901.829 258.625 923.138 258.625C944.447 258.625 961.726 258.86 961.726 259.139Z" fill="#6DA4E3"/>
<path d="M928.091 276.245H915.014V303.685H928.091V276.245Z" fill="#438ADB"/>
<path d="M961.726 314.468C961.726 314.768 944.447 315.004 923.138 315.004C901.829 315.004 884.55 314.768 884.55 314.468C884.55 314.168 901.829 313.954 923.138 313.954C944.447 313.954 961.726 314.19 961.726 314.468Z" fill="#6DA4E3"/>
<path d="M928.091 331.577H915.014V359.017H928.091V331.577Z" fill="#438ADB"/>
<path d="M961.726 369.799C961.726 370.099 944.447 370.335 923.138 370.335C901.829 370.335 884.55 370.099 884.55 369.799C884.55 369.499 901.829 369.284 923.138 369.284C944.447 369.284 961.726 369.52 961.726 369.799Z" fill="#6DA4E3"/>
<path opacity="0.3" d="M794.084 152.679C795.113 144.469 784.502 137.673 776.548 137.03C772.754 136.687 768.81 137.33 765.208 135.958C757.405 132.978 754.296 121.98 746.686 118.486C741.005 115.871 734.445 118.186 728.936 121.23C723.426 124.274 717.981 128.069 711.785 128.498C706.426 128.862 700.616 126.697 695.922 129.569C692.427 131.713 690.605 136.001 687.347 138.68C684.053 140.905 680.152 142.058 676.178 141.982C672.235 141.909 668.318 142.638 664.666 144.126C662.779 145 661.21 146.439 660.177 148.245C659.144 150.05 658.697 152.131 658.899 154.201L794.084 152.679Z" fill="#2E7DD7"/>
<path opacity="0.3" d="M1434.79 76.2966C1435.82 68.1074 1425.23 61.2902 1417.25 60.6471C1413.46 60.3255 1409.52 60.9472 1405.91 59.5752C1398.11 56.6168 1395 45.6193 1387.39 42.1036C1381.71 39.4882 1375.15 41.8249 1369.64 44.8476C1364.13 47.8703 1358.69 51.7076 1352.49 52.1364C1347.13 52.5008 1341.3 50.3356 1336.61 53.1868C1333.11 55.3306 1331.29 59.6181 1328.03 62.3192C1324.74 64.544 1320.84 65.697 1316.86 65.6206C1312.92 65.5493 1309 66.2786 1305.35 67.7644C1303.46 68.6415 1301.9 70.0814 1300.87 71.8858C1299.83 73.6903 1299.38 75.7705 1299.58 77.8401L1434.79 76.2966Z" fill="#2E7DD7"/>
<path d="M594.178 49.2209C595.229 41.0317 584.617 34.2145 576.664 33.5714C572.848 33.2499 568.903 33.8715 565.323 32.4995C557.52 29.5411 554.412 18.5437 546.801 15.0279C541.099 12.4125 534.56 14.7492 529.051 17.7719C523.541 20.7946 518.075 24.6319 511.901 25.0607C506.541 25.4251 500.732 23.2599 496.037 26.1111C492.543 28.2549 490.72 32.6496 487.462 35.2436C484.172 37.4773 480.268 38.6312 476.293 38.5449C472.35 38.4736 468.434 39.2029 464.781 40.6887C462.896 41.5658 461.329 43.0057 460.296 44.8101C459.264 46.6146 458.816 48.6948 459.014 50.7644L594.178 49.2209Z" fill="#438ADB"/>
<path d="M1044.26 47.2911C1045.01 41.3743 1037.36 36.5723 1031.61 36.0149C1028.87 35.7577 1026.02 36.2293 1023.42 35.2432C1017.81 33.0994 1015.56 25.1461 1010.07 22.6164C1005.95 20.7299 1001.24 22.4235 997.206 24.6101C993.175 26.7968 989.295 29.5408 984.858 29.8623C980.999 30.1196 976.797 28.5546 973.41 30.6126C970.88 32.1562 969.572 35.3289 967.236 37.194C964.867 38.8184 962.047 39.6583 959.175 39.595C956.337 39.5118 953.513 40.0154 950.879 41.0742C949.517 41.7037 948.384 42.7416 947.639 44.0439C946.894 45.3463 946.573 46.8483 946.72 48.3416L1044.26 47.2911Z" fill="#438ADB"/>
<path opacity="0.3" d="M97.5761 89.974C98.3264 84.0572 90.6731 79.2552 84.9279 78.6764C82.1756 78.7992 79.4196 78.5395 76.7387 77.9046C71.122 75.7608 68.8711 67.8289 63.3831 65.2993C59.267 63.4128 54.5508 65.1063 50.5205 67.293C46.4902 69.4796 42.61 72.2236 38.1724 72.5238C34.2922 72.8024 30.1119 71.2375 26.7247 73.2955C24.1951 74.839 22.8874 78.0118 20.5507 79.8769C18.184 81.5044 15.3613 82.3377 12.4902 82.2564C9.65158 82.1891 6.82895 82.6997 4.19381 83.7571C2.83173 84.3865 1.69943 85.4245 0.954153 86.7268C0.208873 88.0291 -0.112407 89.5312 0.0349107 91.0244L97.5761 89.974Z" fill="#2E7DD7"/>
</svg>
